<?xml version="1.0" encoding="UTF-8" standalone="no"?>
<!-- Created with Inkscape (http://www.inkscape.org/) -->

<svg
   width="460.59323"
   height="299.99988"
   viewBox="0 0 121.86529 79.374968"
   version="1.1"
   id="svg5"
   inkscape:version="1.2.1 (9c6d41e410, 2022-07-14)"
   sodipodi:docname="information-theory-diagram.svg"
   xmlns:inkscape="http://www.inkscape.org/namespaces/inkscape"
   xmlns:sodipodi="http://sodipodi.sourceforge.net/DTD/sodipodi-0.dtd"
   xmlns="http://www.w3.org/2000/svg"
   xmlns:svg="http://www.w3.org/2000/svg"
   xmlns:rdf="http://www.w3.org/1999/02/22-rdf-syntax-ns#"
   xmlns:cc="http://creativecommons.org/ns#"
   xmlns:dc="http://purl.org/dc/elements/1.1/">
  <title
     id="title20088">information-theory-diagram</title>
  <sodipodi:namedview
     id="namedview7"
     pagecolor="#ffffff"
     bordercolor="#111111"
     borderopacity="1"
     inkscape:showpageshadow="0"
     inkscape:pageopacity="0"
     inkscape:pagecheckerboard="1"
     inkscape:deskcolor="#d1d1d1"
     inkscape:document-units="px"
     showgrid="false"
     inkscape:zoom="1.5554293"
     inkscape:cx="171.97825"
     inkscape:cy="228.87572"
     inkscape:window-width="1920"
     inkscape:window-height="1027"
     inkscape:window-x="-8"
     inkscape:window-y="-8"
     inkscape:window-maximized="1"
     inkscape:current-layer="layer1" />
  <defs
     id="defs2">
    <inkscape:path-effect
       effect="spiro"
       id="path-effect19576"
       is_visible="true"
       lpeversion="1" />
    <inkscape:path-effect
       effect="spiro"
       id="path-effect19553"
       is_visible="true"
       lpeversion="1" />
    <marker
       style="overflow:visible"
       id="marker19497"
       refX="0"
       refY="0"
       orient="auto-start-reverse"
       inkscape:stockid="Arrow3"
       markerWidth="4.2071066"
       markerHeight="7"
       viewBox="0 0 4.2071068 7"
       inkscape:isstock="true"
       inkscape:collect="always"
       preserveAspectRatio="xMidYMid">
      <path
         style="fill:none;stroke:context-stroke;stroke-width:1;stroke-linecap:round"
         d="M 3,-3 0,0 3,3"
         id="path19495"
         transform="rotate(180,0.125,0)"
         sodipodi:nodetypes="ccc" />
    </marker>
    <inkscape:path-effect
       effect="spiro"
       id="path-effect18516"
       is_visible="true"
       lpeversion="1" />
    <inkscape:path-effect
       effect="spiro"
       id="path-effect18512"
       is_visible="true"
       lpeversion="1" />
  </defs>
  <g
     inkscape:label="Layer 1"
     inkscape:groupmode="layer"
     id="layer1"
     transform="translate(-56.26153,-1.5768065e-5)">
    <g
       id="g7807" />
    <path
       id="rect3383"
       style="fill:#ffffff;fill-opacity:1;stroke-width:1.029;stroke-linecap:round;paint-order:fill markers stroke"
       d="m 119.0625,49.03497 a 26.120893,26.121872 0 0 1 -1.94798,-1.265681 26.120893,26.121872 0 0 1 -2.12531,-1.720826 26.120893,26.121872 0 0 1 -1.93275,-1.933505 26.120893,26.121872 0 0 1 -1.72075,-2.12471 26.120893,26.121872 0 0 1 -1.48938,-2.293049 26.120893,26.121872 0 0 1 -1.24138,-2.436452 26.120893,26.121872 0 0 1 -0.97954,-2.552144 26.120893,26.121872 0 0 1 -0.70797,-2.641512 26.120893,26.121872 0 0 1 -0.354,-2.236936 26.120893,26.121869 0 0 0 -0.56111,0.286112 26.120893,26.121869 0 0 0 -2.29296,1.489443 26.120893,26.121869 0 0 0 -2.12532,1.720828 26.120893,26.121869 0 0 0 -1.933425,1.932812 26.120893,26.121869 0 0 0 -1.720066,2.125401 26.120893,26.121869 0 0 0 -1.489384,2.29305 26.120893,26.121869 0 0 0 -1.241385,2.435761 26.120893,26.121869 0 0 0 -0.979531,2.552836 26.120893,26.121869 0 0 0 -0.707977,2.640818 26.120893,26.121869 0 0 0 -0.353988,2.237628 26.120893,26.121928 0 0 0 1.874546,0.955322 26.120893,26.121928 0 0 0 2.552735,0.979569 26.120893,26.121928 0 0 0 2.640715,0.708005 26.120893,26.121928 0 0 0 2.70098,0.427436 26.120893,26.121928 0 0 0 2.73008,0.143402 26.120893,26.121928 0 0 0 2.73007,-0.143402 26.120893,26.121928 0 0 0 2.70099,-0.427436 26.120893,26.121928 0 0 0 2.6407,-0.708005 26.120893,26.121928 0 0 0 2.55274,-0.979569 26.120893,26.121928 0 0 0 2.43566,-1.241433 26.120893,26.121928 0 0 0 0.34499,-0.223763 z" />
    <path
       id="path7797"
       style="fill:#ffffff;fill-opacity:1;stroke-width:1.029;stroke-linecap:round;paint-order:fill markers stroke"
       d="m 119.0625,49.03497 a 26.120893,26.121928 0 0 1 -0.34499,0.223763 26.120893,26.121928 0 0 1 -2.43566,1.241433 26.120893,26.121928 0 0 1 -2.55274,0.979569 26.120893,26.121928 0 0 1 -2.6407,0.708005 26.120893,26.121928 0 0 1 -2.70099,0.427436 26.120893,26.121928 0 0 1 -2.73007,0.143402 26.120893,26.121928 0 0 1 -2.73008,-0.143402 26.120893,26.121928 0 0 1 -2.70098,-0.427436 26.120893,26.121928 0 0 1 -2.640715,-0.708005 26.120893,26.121928 0 0 1 -2.552735,-0.979569 26.120893,26.121928 0 0 1 -1.874546,-0.955322 26.120893,26.121869 0 0 0 -0.07343,0.46346 26.120893,26.121869 0 0 0 -0.143396,2.730184 26.120893,26.121869 0 0 0 0.143396,2.730878 26.120893,26.121869 0 0 0 0.427418,2.700395 26.120893,26.121869 0 0 0 0.707977,2.640818 26.120893,26.121869 0 0 0 0.979531,2.552836 26.120893,26.121869 0 0 0 1.241385,2.435759 26.120893,26.121869 0 0 0 1.489384,2.293743 26.120893,26.121869 0 0 0 1.720066,2.124709 26.120893,26.121869 0 0 0 1.933425,1.933505 26.120893,26.121869 0 0 0 2.12532,1.720134 26.120893,26.121869 0 0 0 2.29296,1.489443 26.120893,26.121869 0 0 0 2.43567,1.241434 26.120893,26.121869 0 0 0 2.55272,0.979569 26.120893,26.121869 0 0 0 2.64072,0.708005 26.120893,26.121869 0 0 0 2.70098,0.427435 26.120893,26.121869 0 0 0 2.73008,0.143403 26.120893,26.121869 0 0 0 2.73077,-0.143403 26.120893,26.121869 0 0 0 2.70028,-0.427435 26.120893,26.121869 0 0 0 2.64072,-0.708005 26.120893,26.121869 0 0 0 2.55273,-0.979569 26.120893,26.121869 0 0 0 2.43567,-1.241434 26.120893,26.121869 0 0 0 2.29364,-1.489443 26.120893,26.121869 0 0 0 2.12463,-1.720134 26.120893,26.121869 0 0 0 1.93343,-1.933505 26.120893,26.121869 0 0 0 1.72076,-2.124709 26.120893,26.121869 0 0 0 1.48869,-2.293743 26.120893,26.121869 0 0 0 1.24139,-2.435759 26.120893,26.121869 0 0 0 0.97953,-2.552836 26.120893,26.121869 0 0 0 0.70798,-2.640818 26.120893,26.121869 0 0 0 0.42741,-2.700395 26.120893,26.121869 0 0 0 0.1434,-2.730878 26.120893,26.121869 0 0 0 -0.0173,-0.953937 26.120893,26.121869 0 0 0 -0.0527,-0.952551 26.120893,26.121869 0 0 0 -0.0866,-0.950472 26.120893,26.121869 0 0 0 -0.0444,-0.344304 26.120893,26.121872 0 0 1 -1.89048,0.962942 26.120893,26.121872 0 0 1 -2.55274,0.979569 26.120893,26.121872 0 0 1 -2.6407,0.707312 26.120893,26.121872 0 0 1 -2.7003,0.428129 26.120893,26.121872 0 0 1 -2.73076,0.142709 26.120893,26.121872 0 0 1 -2.73008,-0.142709 26.120893,26.121872 0 0 1 -2.70029,-0.428129 26.120893,26.121872 0 0 1 -2.6414,-0.707312 26.120893,26.121872 0 0 1 -2.55274,-0.979569 26.120893,26.121872 0 0 1 -2.43566,-1.241433 26.120893,26.121872 0 0 1 -0.34499,-0.223763 z" />
    <path
       id="path7795"
       style="fill:#ffffff;fill-opacity:1;stroke:none;stroke-width:1.029;stroke-linecap:round;paint-order:fill markers stroke"
       d="m 131.56501,29.807987 a 26.120893,26.121869 0 0 0 -0.55904,-0.30066 26.120893,26.121869 0 0 0 -0.85622,-0.420508 26.120893,26.121869 0 0 0 -0.87146,-0.389333 26.120893,26.121869 0 0 0 -0.88462,-0.357467 26.120893,26.121869 0 0 0 -0.89709,-0.324213 26.120893,26.121869 0 0 0 -0.90888,-0.291654 26.120893,26.121869 0 0 0 -0.91857,-0.258401 26.120893,26.121869 0 0 0 -0.92688,-0.224456 26.120893,26.121869 0 0 0 -0.93519,-0.189817 26.120893,26.121869 0 0 0 -0.94143,-0.156565 26.120893,26.121869 0 0 0 -0.94628,-0.121229 26.120893,26.121869 0 0 0 -0.95043,-0.08728 26.120893,26.121869 0 0 0 -0.95253,-0.05196 26.120893,26.121869 0 0 0 -0.95389,-0.01802 26.120893,26.121869 0 0 0 -2.73008,0.143402 26.120893,26.121869 0 0 0 -2.70098,0.427436 26.120893,26.121869 0 0 0 -2.64072,0.708005 26.120893,26.121869 0 0 0 -2.55272,0.979569 26.120893,26.121869 0 0 0 -1.87456,0.955321 26.120893,26.121872 0 0 0 0.354,2.236936 26.120893,26.121872 0 0 0 0.70797,2.641512 26.120893,26.121872 0 0 0 0.97954,2.552144 26.120893,26.121872 0 0 0 1.24138,2.436452 26.120893,26.121872 0 0 0 1.48938,2.293049 26.120893,26.121872 0 0 0 1.72075,2.124709 26.120893,26.121872 0 0 0 1.93275,1.933505 26.120893,26.121872 0 0 0 2.12531,1.720826 26.120893,26.121872 0 0 0 1.94798,1.265682 26.120893,26.121928 0 0 0 1.94797,-1.265682 26.120893,26.121928 0 0 0 2.12532,-1.720826 26.120893,26.121928 0 0 0 1.93343,-1.932813 26.120893,26.121928 0 0 0 1.72007,-2.125401 26.120893,26.121928 0 0 0 1.48938,-2.293049 26.120893,26.121928 0 0 0 1.24138,-2.43576 26.120893,26.121928 0 0 0 0.97954,-2.552836 26.120893,26.121928 0 0 0 0.70797,-2.640819 26.120893,26.121928 0 0 0 0.35745,-2.259797 z" />
    <path
       id="path7793"
       style="fill:#ffffff;fill-opacity:1;stroke-width:1.029;stroke-linecap:round;paint-order:fill markers stroke"
       d="m 131.56501,29.807987 a 26.120893,26.121928 0 0 1 -0.35745,2.259798 26.120893,26.121928 0 0 1 -0.70797,2.640818 26.120893,26.121928 0 0 1 -0.97954,2.552836 26.120893,26.121928 0 0 1 -1.24138,2.43576 26.120893,26.121928 0 0 1 -1.48938,2.293049 26.120893,26.121928 0 0 1 -1.72007,2.125401 26.120893,26.121928 0 0 1 -1.93343,1.932814 26.120893,26.121928 0 0 1 -2.12532,1.720826 26.120893,26.121928 0 0 1 -1.94797,1.265681 26.120893,26.121872 0 0 0 0.34498,0.223763 26.120893,26.121872 0 0 0 2.43566,1.241433 26.120893,26.121872 0 0 0 2.55274,0.979569 26.120893,26.121872 0 0 0 2.6414,0.707312 26.120893,26.121872 0 0 0 2.7003,0.428129 26.120893,26.121872 0 0 0 2.73008,0.142709 26.120893,26.121872 0 0 0 2.73076,-0.142709 26.120893,26.121872 0 0 0 2.70029,-0.428129 26.120893,26.121872 0 0 0 2.64071,-0.707312 26.120893,26.121872 0 0 0 2.55274,-0.979569 26.120893,26.121872 0 0 0 1.89048,-0.962942 26.120893,26.121869 0 0 0 -0.0776,-0.602012 26.120893,26.121869 0 0 0 -0.15586,-0.941467 26.120893,26.121869 0 0 0 -0.19051,-0.934539 26.120893,26.121869 0 0 0 -0.22444,-0.927611 26.120893,26.121869 0 0 0 -0.25839,-0.918606 26.120893,26.121869 0 0 0 -0.29164,-0.908908 26.120893,26.121869 0 0 0 -0.32421,-0.89713 26.120893,26.121869 0 0 0 -0.35745,-0.88466 26.120893,26.121869 0 0 0 -0.38862,-0.871497 26.120893,26.121869 0 0 0 -0.42119,-0.856257 26.120893,26.121869 0 0 0 -0.45167,-0.840323 26.120893,26.121869 0 0 0 -0.48213,-0.823697 26.120893,26.121869 0 0 0 -0.51194,-0.804992 26.120893,26.121869 0 0 0 -0.54034,-0.786287 26.120893,26.121869 0 0 0 -0.56943,-0.765505 26.120893,26.121869 0 0 0 -0.59713,-0.744721 26.120893,26.121869 0 0 0 -0.62347,-0.721861 26.120893,26.121869 0 0 0 -0.64978,-0.698999 26.120893,26.121869 0 0 0 -0.67473,-0.674752 26.120893,26.121869 0 0 0 -0.69828,-0.649813 26.120893,26.121869 0 0 0 -0.72252,-0.623488 26.120893,26.121869 0 0 0 -0.7447,-0.597163 26.120893,26.121869 0 0 0 -0.76547,-0.568761 26.120893,26.121869 0 0 0 -0.78626,-0.541049 26.120893,26.121869 0 0 0 -0.80496,-0.511951 26.120893,26.121869 0 0 0 -0.82366,-0.482164 26.120893,26.121869 0 0 0 -0.28126,-0.151024 z" />
    <path
       id="path7791"
       style="fill:#ffffff;fill-opacity:1;stroke-width:1.029;stroke-linecap:round;paint-order:fill markers stroke"
       d="m 119.07636,4.2290483 a 26.120893,26.121872 0 0 0 -1.96184,1.2739942 26.120893,26.121872 0 0 0 -2.12531,1.720826 26.120893,26.121872 0 0 0 -1.93275,1.9335064 26.120893,26.121872 0 0 0 -1.72075,2.1247081 26.120893,26.121872 0 0 0 -1.48938,2.29305 26.120893,26.121872 0 0 0 -1.24138,2.436452 26.120893,26.121872 0 0 0 -0.97954,2.552836 26.120893,26.121872 0 0 0 -0.70797,2.640819 26.120893,26.121872 0 0 0 -0.42743,2.700395 26.120893,26.121872 0 0 0 -0.1434,2.730877 26.120893,26.121872 0 0 0 0.1434,2.730184 26.120893,26.121872 0 0 0 0.0735,0.463459 26.120893,26.121869 0 0 1 1.87455,-0.95532 26.120893,26.121869 0 0 1 2.55273,-0.97957 26.120893,26.121869 0 0 1 2.64072,-0.708005 26.120893,26.121869 0 0 1 2.70098,-0.427436 26.120893,26.121869 0 0 1 2.73007,-0.143402 26.120893,26.121869 0 0 1 0.9539,0.01802 26.120893,26.121869 0 0 1 0.95252,0.05196 26.120893,26.121869 0 0 1 0.95044,0.08729 26.120893,26.121869 0 0 1 0.94628,0.121228 26.120893,26.121869 0 0 1 0.94142,0.156566 26.120893,26.121869 0 0 1 0.93519,0.189816 26.120893,26.121869 0 0 1 0.92689,0.224457 26.120893,26.121869 0 0 1 0.91857,0.258401 26.120893,26.121869 0 0 1 0.90887,0.291654 26.120893,26.121869 0 0 1 0.8971,0.324212 26.120893,26.121869 0 0 1 0.88461,0.357468 26.120893,26.121869 0 0 1 0.87147,0.389333 26.120893,26.121869 0 0 1 0.85622,0.420508 26.120893,26.121869 0 0 1 0.55904,0.30066 26.120893,26.121928 0 0 0 0.07,-0.441291 26.120893,26.121928 0 0 0 0.1434,-2.730184 26.120893,26.121928 0 0 0 -0.0173,-0.953936 26.120893,26.121928 0 0 0 -0.0527,-0.953245 26.120893,26.121928 0 0 0 -0.0866,-0.94978 26.120893,26.121928 0 0 0 -0.12199,-0.946316 26.120893,26.121928 0 0 0 -0.15588,-0.941467 26.120893,26.121928 0 0 0 -0.1905,-0.935232 26.120893,26.121928 0 0 0 -0.22445,-0.927611 26.120893,26.121928 0 0 0 -0.25838,-0.917913 26.120893,26.121928 0 0 0 -0.29165,-0.908906 26.120893,26.121928 0 0 0 -0.32419,-0.89713 26.120893,26.121928 0 0 0 -0.35745,-0.885353 26.120893,26.121928 0 0 0 -0.38863,-0.870805 26.120893,26.121928 0 0 0 -0.42119,-0.856256 26.120893,26.121928 0 0 0 -0.45166,-0.841016 26.120893,26.121928 0 0 0 -0.48215,-0.823004 26.120893,26.121928 0 0 0 -0.51193,-0.805686 26.120893,26.121928 0 0 0 -0.54033,-0.785595 26.120893,26.121928 0 0 0 -0.56943,-0.766197 26.120893,26.121928 0 0 0 -0.59715,-0.7440287 26.120893,26.121928 0 0 0 -0.62345,-0.722553 26.120893,26.121928 0 0 0 -0.6498,-0.6990004 26.120893,26.121928 0 0 0 -0.67472,-0.6740588 26.120893,26.121928 0 0 0 -0.69897,-0.6498131 26.120893,26.121928 0 0 0 -0.72183,-0.6234881 26.120893,26.121928 0 0 0 -0.74469,-0.5971631 26.120893,26.121928 0 0 0 -0.76548,-0.5694519 26.120893,26.121928 0 0 0 -0.78625,-0.5410491 26.120893,26.121928 0 0 0 -0.80496,-0.51126 26.120893,26.121928 0 0 0 -0.18842,-0.1101555 z" />
    <path
       id="path7789"
       style="fill:#ffffff;fill-opacity:1;stroke-width:1.029;stroke-linecap:round;paint-order:fill markers stroke"
       d="m 119.07636,4.2290483 a 26.120893,26.121928 0 0 1 0.18842,0.1101555 26.120893,26.121928 0 0 1 0.80496,0.51126 26.120893,26.121928 0 0 1 0.78625,0.5410491 26.120893,26.121928 0 0 1 0.76548,0.569452 26.120893,26.121928 0 0 1 0.74469,0.5971631 26.120893,26.121928 0 0 1 0.72184,0.6234881 26.120893,26.121928 0 0 1 0.69896,0.649813 26.120893,26.121928 0 0 1 0.67473,0.6740589 26.120893,26.121928 0 0 1 0.64979,0.6990003 26.120893,26.121928 0 0 1 0.62346,0.722553 26.120893,26.121928 0 0 1 0.59715,0.7440287 26.120893,26.121928 0 0 1 0.56943,0.766197 26.120893,26.121928 0 0 1 0.54032,0.785595 26.120893,26.121928 0 0 1 0.51194,0.805686 26.120893,26.121928 0 0 1 0.48214,0.823004 26.120893,26.121928 0 0 1 0.45167,0.841016 26.120893,26.121928 0 0 1 0.42118,0.856256 26.120893,26.121928 0 0 1 0.38863,0.870805 26.120893,26.121928 0 0 1 0.35745,0.885353 26.120893,26.121928 0 0 1 0.3242,0.89713 26.120893,26.121928 0 0 1 0.29164,0.908906 26.120893,26.121928 0 0 1 0.25839,0.917913 26.120893,26.121928 0 0 1 0.22444,0.927611 26.120893,26.121928 0 0 1 0.19051,0.935232 26.120893,26.121928 0 0 1 0.15587,0.941467 26.120893,26.121928 0 0 1 0.12199,0.946316 26.120893,26.121928 0 0 1 0.0866,0.94978 26.120893,26.121928 0 0 1 0.0527,0.953245 26.120893,26.121928 0 0 1 0.0173,0.953936 26.120893,26.121928 0 0 1 -0.14339,2.730184 26.120893,26.121928 0 0 1 -0.07,0.441291 26.120893,26.121869 0 0 1 0.28126,0.151023 26.120893,26.121869 0 0 1 0.82366,0.482164 26.120893,26.121869 0 0 1 0.80496,0.511952 26.120893,26.121869 0 0 1 0.78626,0.541049 26.120893,26.121869 0 0 1 0.76547,0.56876 26.120893,26.121869 0 0 1 0.7447,0.597163 26.120893,26.121869 0 0 1 0.72252,0.623488 26.120893,26.121869 0 0 1 0.69828,0.649813 26.120893,26.121869 0 0 1 0.67473,0.674752 26.120893,26.121869 0 0 1 0.64978,0.698999 26.120893,26.121869 0 0 1 0.62346,0.721861 26.120893,26.121869 0 0 1 0.59714,0.744721 26.120893,26.121869 0 0 1 0.56943,0.765505 26.120893,26.121869 0 0 1 0.54034,0.786287 26.120893,26.121869 0 0 1 0.51193,0.804992 26.120893,26.121869 0 0 1 0.48214,0.823698 26.120893,26.121869 0 0 1 0.45166,0.840323 26.120893,26.121869 0 0 1 0.4212,0.856257 26.120893,26.121869 0 0 1 0.38862,0.871497 26.120893,26.121869 0 0 1 0.35745,0.88466 26.120893,26.121869 0 0 1 0.3242,0.89713 26.120893,26.121869 0 0 1 0.29165,0.908907 26.120893,26.121869 0 0 1 0.25839,0.918606 26.120893,26.121869 0 0 1 0.22444,0.927611 26.120893,26.121869 0 0 1 0.1905,0.934539 26.120893,26.121869 0 0 1 0.15587,0.941467 26.120893,26.121869 0 0 1 0.0776,0.602012 26.120893,26.121872 0 0 0 0.54588,-0.278491 26.120893,26.121872 0 0 0 2.29296,-1.489444 26.120893,26.121872 0 0 0 2.12463,-1.720826 26.120893,26.121872 0 0 0 1.93343,-1.933505 26.120893,26.121872 0 0 0 1.72075,-2.124709 26.120893,26.121872 0 0 0 1.4887,-2.293049 26.120893,26.121872 0 0 0 1.24138,-2.436452 26.120893,26.121872 0 0 0 0.97952,-2.552145 26.120893,26.121872 0 0 0 0.70798,-2.641511 26.120893,26.121872 0 0 0 0.42743,-2.700395 26.120893,26.121872 0 0 0 0.14339,-2.730184 26.120893,26.121872 0 0 0 -0.0173,-0.953936 26.120893,26.121872 0 0 0 -0.0527,-0.953245 26.120893,26.121872 0 0 0 -0.0866,-0.94978 26.120893,26.121872 0 0 0 -0.12199,-0.946316 26.120893,26.121872 0 0 0 -0.15586,-0.941467 26.120893,26.121872 0 0 0 -0.19051,-0.935232 26.120893,26.121872 0 0 0 -0.22444,-0.927611 26.120893,26.121872 0 0 0 -0.2584,-0.918605 26.120893,26.121872 0 0 0 -0.29165,-0.908214 26.120893,26.121872 0 0 0 -0.32419,-0.89713 26.120893,26.121872 0 0 0 -0.35745,-0.885353 26.120893,26.121872 0 0 0 -0.38863,-0.870805 26.120893,26.121872 0 0 0 -0.42118,-0.856256 26.120893,26.121872 0 0 0 -0.45167,-0.841016 26.120893,26.121872 0 0 0 -0.48215,-0.823004 26.120893,26.121872 0 0 0 -0.51123,-0.805686 26.120893,26.121872 0 0 0 -0.54103,-0.785595 26.120893,26.121872 0 0 0 -0.56943,-0.766197 26.120893,26.121872 0 0 0 -0.59713,-0.7440287 26.120893,26.121872 0 0 0 -0.62347,-0.722553 26.120893,26.121872 0 0 0 -0.64979,-0.6990003 26.120893,26.121872 0 0 0 -0.67472,-0.6740589 26.120893,26.121872 0 0 0 -0.69828,-0.649813 26.120893,26.121872 0 0 0 -0.72253,-0.6234881 26.120893,26.121872 0 0 0 -0.74399,-0.5971631 26.120893,26.121872 0 0 0 -0.76617,-0.569452 26.120893,26.121872 0 0 0 -0.78557,-0.5410491 26.120893,26.121872 0 0 0 -0.80565,-0.51126 26.120893,26.121872 0 0 0 -0.82297,-0.482164 26.120893,26.121872 0 0 0 -0.84099,-0.4516819 26.120893,26.121872 0 0 0 -0.85622,-0.4212012 26.120893,26.121872 0 0 0 -0.87146,-0.3893342 26.120893,26.121872 0 0 0 -0.88463,-0.3567728 26.120893,26.121872 0 0 0 -0.89709,-0.3242141 26.120893,26.121872 0 0 0 -0.90887,-0.2916541 26.120893,26.121872 0 0 0 -0.91857,-0.258401 26.120893,26.121872 0 0 0 -0.92688,-0.2244548 26.120893,26.121872 0 0 0 -0.93519,-0.1905113 26.120893,26.121872 0 0 0 -0.94144,-0.15587202 26.120893,26.121872 0 0 0 -0.94628,-0.12192583 26.120893,26.121872 0 0 0 -0.94974,-0.0866015 26.120893,26.121872 0 0 0 -0.9532,-0.0526446 26.120893,26.121872 0 0 0 -0.9539,-0.0173203 26.120893,26.121872 0 0 0 -2.73008,0.14340194 26.120893,26.121872 0 0 0 -2.70029,0.42743611 26.120893,26.121872 0 0 0 -2.6414,0.708005 26.120893,26.121872 0 0 0 -2.55274,0.9795692 26.120893,26.121872 0 0 0 -2.43566,1.2414329 26.120893,26.121872 0 0 0 -0.33112,0.214757 z" />
    <path
       id="path7787"
       style="fill:#ffffff;fill-opacity:1;stroke-width:1.029;stroke-linecap:round;paint-order:fill markers stroke"
       d="m 105.65735,0.51444608 a 26.120893,26.121928 0 0 0 -2.73008,0.14340194 26.120893,26.121928 0 0 0 -2.70098,0.42743618 26.120893,26.121928 0 0 0 -2.640715,0.708005 26.120893,26.121928 0 0 0 -2.552735,0.9795692 26.120893,26.121928 0 0 0 -2.435662,1.2414329 26.120893,26.121928 0 0 0 -2.293653,1.4887512 26.120893,26.121928 0 0 0 -2.124624,1.720826 26.120893,26.121928 0 0 0 -1.933428,1.9335064 26.120893,26.121928 0 0 0 -1.720066,2.1247081 26.120893,26.121928 0 0 0 -1.489384,2.29305 26.120893,26.121928 0 0 0 -1.241385,2.436452 26.120893,26.121928 0 0 0 -0.979531,2.552836 26.120893,26.121928 0 0 0 -0.707977,2.640819 26.120893,26.121928 0 0 0 -0.427418,2.700395 26.120893,26.121928 0 0 0 -0.143397,2.730877 26.120893,26.121928 0 0 0 0.143397,2.730184 26.120893,26.121928 0 0 0 0.427418,2.701089 26.120893,26.121928 0 0 0 0.707977,2.640818 26.120893,26.121928 0 0 0 0.979531,2.552836 26.120893,26.121928 0 0 0 1.241385,2.43576 26.120893,26.121928 0 0 0 1.489384,2.293049 26.120893,26.121928 0 0 0 1.720066,2.125401 26.120893,26.121928 0 0 0 1.933428,1.932814 26.120893,26.121928 0 0 0 2.124624,1.720826 26.120893,26.121928 0 0 0 2.293653,1.489444 26.120893,26.121928 0 0 0 0.561116,0.286111 26.120893,26.121869 0 0 1 0.353988,-2.237628 26.120893,26.121869 0 0 1 0.707977,-2.640818 26.120893,26.121869 0 0 1 0.979531,-2.552836 26.120893,26.121869 0 0 1 1.241385,-2.435761 26.120893,26.121869 0 0 1 1.489384,-2.29305 26.120893,26.121869 0 0 1 1.720066,-2.125401 26.120893,26.121869 0 0 1 1.933425,-1.932812 26.120893,26.121869 0 0 1 2.12532,-1.720828 26.120893,26.121869 0 0 1 2.29296,-1.489443 26.120893,26.121869 0 0 1 0.56111,-0.286112 26.120893,26.121872 0 0 1 -0.0735,-0.463459 26.120893,26.121872 0 0 1 -0.14339,-2.730184 26.120893,26.121872 0 0 1 0.14339,-2.730877 26.120893,26.121872 0 0 1 0.42743,-2.700395 26.120893,26.121872 0 0 1 0.70797,-2.640819 26.120893,26.121872 0 0 1 0.97954,-2.552836 26.120893,26.121872 0 0 1 1.24138,-2.436452 26.120893,26.121872 0 0 1 1.48938,-2.29305 26.120893,26.121872 0 0 1 1.72076,-2.1247081 26.120893,26.121872 0 0 1 1.93274,-1.9335064 26.120893,26.121872 0 0 1 2.12532,-1.720826 26.120893,26.121872 0 0 1 1.96183,-1.2739942 26.120893,26.121928 0 0 0 -0.63525,-0.3720139 26.120893,26.121928 0 0 0 -0.84028,-0.4516819 26.120893,26.121928 0 0 0 -0.85622,-0.4212011 26.120893,26.121928 0 0 0 -0.87147,-0.3886412 26.120893,26.121928 0 0 0 -0.88462,-0.3574658 26.120893,26.121928 0 0 0 -0.8971,-0.3242142 26.120893,26.121928 0 0 0 -0.90888,-0.2916541 26.120893,26.121928 0 0 0 -0.91855,-0.258401 26.120893,26.121928 0 0 0 -0.9269,-0.2244548 26.120893,26.121928 0 0 0 -0.93519,-0.19051126 26.120893,26.121928 0 0 0 -0.94142,-0.15587202 26.120893,26.121928 0 0 0 -0.94628,-0.12192584 26.120893,26.121928 0 0 0 -0.95044,-0.0866015 26.120893,26.121928 0 0 0 -0.95251,-0.0526446 26.120893,26.121928 0 0 0 -0.9539,-0.0173203 z" />
    <path
       id="path11737"
       style="fill:#1a8fe3;fill-opacity:1;stroke:none;stroke-width:1.029;stroke-linecap:round;stroke-dasharray:4.116, 1.029;stroke-dashoffset:0;paint-order:fill markers stroke"
       d="M 132.46788,0.51469725 A 26.120893,26.121872 0 0 0 119.07387,4.2240315 26.120893,26.121928 0 0 1 131.778,26.636616 26.120893,26.121928 0 0 1 131.56716,29.813167 26.120893,26.121869 0 0 1 144.98598,49.545295 26.120893,26.121872 0 0 0 158.58877,26.636616 26.120893,26.121872 0 0 0 132.46788,0.51469725 Z" />
    <path
       style="fill:none;stroke:#1a8fe3;stroke-width:1.029;stroke-linecap:round;stroke-opacity:1;paint-order:fill markers stroke"
       d="M 145.18339,52.738614 A 26.120893,26.121869 0 0 1 119.0625,78.860483 26.120893,26.121869 0 0 1 92.94161,52.738614 26.120893,26.121869 0 0 1 119.0625,26.616745 26.120893,26.121869 0 0 1 145.18339,52.738614 Z"
       id="ellipse3308" />
    <text
       xml:space="preserve"
       style="font-style:normal;font-variant:normal;font-weight:normal;font-stretch:normal;font-size:4.9389px;line-height:0.5;font-family:Corbel;-inkscape-font-specification:'Corbel, Normal';font-variant-ligatures:normal;font-variant-caps:normal;font-variant-numeric:normal;font-variant-east-asian:normal;text-align:center;text-anchor:middle;fill:#1a8fe3;fill-opacity:1;stroke:none;stroke-width:1.029;stroke-linecap:round;stroke-opacity:1;paint-order:fill markers stroke"
       x="79.948456"
       y="6.2938151"
       id="text7880"><tspan
         sodipodi:role="line"
         style="font-style:normal;font-variant:normal;font-weight:normal;font-stretch:normal;font-size:4.9389px;font-family:Corbel;-inkscape-font-specification:'Corbel, Normal';font-variant-ligatures:normal;font-variant-caps:normal;font-variant-numeric:normal;font-variant-east-asian:normal;fill:#1a8fe3;fill-opacity:1;stroke:none;stroke-width:1.029"
         x="79.948456"
         y="6.2938151"
         id="tspan7932">H[X]</tspan></text>
    <text
       xml:space="preserve"
       style="font-style:normal;font-variant:normal;font-weight:normal;font-stretch:normal;font-size:4.9389px;line-height:0.5;font-family:Corbel;-inkscape-font-specification:'Corbel, Normal';font-variant-ligatures:normal;font-variant-caps:normal;font-variant-numeric:normal;font-variant-east-asian:normal;text-align:center;text-anchor:middle;fill:#1a8fe3;fill-opacity:1;stroke:none;stroke-width:1.029;stroke-linecap:round;stroke-opacity:1;paint-order:fill markers stroke"
       x="158.19588"
       y="6.2938151"
       id="text9404"><tspan
         sodipodi:role="line"
         style="font-style:normal;font-variant:normal;font-weight:normal;font-stretch:normal;font-size:4.9389px;font-family:Corbel;-inkscape-font-specification:'Corbel, Normal';font-variant-ligatures:normal;font-variant-caps:normal;font-variant-numeric:normal;font-variant-east-asian:normal;fill:#1a8fe3;fill-opacity:1;stroke:none;stroke-width:1.029;stroke-opacity:1"
         x="158.19588"
         y="6.2938151"
         id="tspan9402">H[Y]</tspan></text>
    <text
       xml:space="preserve"
       style="font-style:normal;font-variant:normal;font-weight:normal;font-stretch:normal;font-size:4.9389px;line-height:0.5;font-family:Corbel;-inkscape-font-specification:'Corbel, Normal';font-variant-ligatures:normal;font-variant-caps:normal;font-variant-numeric:normal;font-variant-east-asian:normal;text-align:center;text-anchor:middle;fill:#1a8fe3;fill-opacity:1;stroke:none;stroke-width:1.029;stroke-linecap:round;stroke-opacity:1;paint-order:fill markers stroke"
       x="119.18553"
       y="21.608139"
       id="text9404-63"><tspan
         sodipodi:role="line"
         style="font-style:normal;font-variant:normal;font-weight:normal;font-stretch:normal;font-size:4.9389px;font-family:Corbel;-inkscape-font-specification:'Corbel, Normal';font-variant-ligatures:normal;font-variant-caps:normal;font-variant-numeric:normal;font-variant-east-asian:normal;fill:#1a8fe3;fill-opacity:1;stroke:none;stroke-width:1.029"
         x="119.18553"
         y="21.608139"
         id="tspan9402-7">I[X;Y]</tspan></text>
    <text
       xml:space="preserve"
       style="font-style:normal;font-variant:normal;font-weight:normal;font-stretch:normal;font-size:4.9389px;line-height:0.5;font-family:Corbel;-inkscape-font-specification:'Corbel, Normal';font-variant-ligatures:normal;font-variant-caps:normal;font-variant-numeric:normal;font-variant-east-asian:normal;text-align:center;text-anchor:middle;fill:#ffffff;fill-opacity:1;stroke:none;stroke-width:1.029;stroke-linecap:round;stroke-opacity:1;paint-order:fill markers stroke"
       x="144.03856"
       y="21.608139"
       id="text9404-63-9"><tspan
         sodipodi:role="line"
         style="font-style:normal;font-variant:normal;font-weight:normal;font-stretch:normal;font-size:4.9389px;font-family:Corbel;-inkscape-font-specification:'Corbel, Normal';font-variant-ligatures:normal;font-variant-caps:normal;font-variant-numeric:normal;font-variant-east-asian:normal;fill:#ffffff;fill-opacity:1;stroke:none;stroke-width:1.029"
         x="144.03856"
         y="21.608139"
         id="tspan9402-7-9">H[Y|X,Z]</tspan></text>
    <text
       xml:space="preserve"
       style="font-style:normal;font-variant:normal;font-weight:normal;font-stretch:normal;font-size:4.9389px;line-height:0.5;font-family:Corbel;-inkscape-font-specification:'Corbel, Normal';font-variant-ligatures:normal;font-variant-caps:normal;font-variant-numeric:normal;font-variant-east-asian:normal;text-align:center;text-anchor:middle;fill:#1a8fe3;fill-opacity:1;stroke:none;stroke-width:1.029;stroke-linecap:round;stroke-opacity:1;paint-order:fill markers stroke"
       x="94.629204"
       y="76.429726"
       id="text9404-6"><tspan
         sodipodi:role="line"
         style="font-style:normal;font-variant:normal;font-weight:normal;font-stretch:normal;font-size:4.9389px;font-family:Corbel;-inkscape-font-specification:'Corbel, Normal';font-variant-ligatures:normal;font-variant-caps:normal;font-variant-numeric:normal;font-variant-east-asian:normal;fill:#1a8fe3;fill-opacity:1;stroke:none;stroke-width:1.029"
         x="94.629204"
         y="76.429726"
         id="tspan9402-8">H[Z]</tspan></text>
    <path
       style="fill:none;stroke:#1a8fe3;stroke-width:1.029;stroke-linecap:round;stroke-opacity:1;paint-order:fill markers stroke"
       d="M 131.77816,26.636444 A 26.120893,26.121928 0 0 1 105.65727,52.758372 26.120893,26.121928 0 0 1 79.536378,26.636444 26.120893,26.121928 0 0 1 105.65727,0.51451579 26.120893,26.121928 0 0 1 131.77816,26.636444 Z"
       id="path9400" />
    <path
       style="fill:none;stroke:#1a8fe3;stroke-width:1.029;stroke-linecap:round;stroke-opacity:1;paint-order:fill markers stroke"
       d="M 158.58862,26.636387 A 26.120893,26.121872 0 0 1 132.46774,52.758259 26.120893,26.121872 0 0 1 106.34684,26.636387 26.120893,26.121872 0 0 1 132.46774,0.51451579 26.120893,26.121872 0 0 1 158.58862,26.636387 Z"
       id="path9398" />
    <path
       id="path9433"
       style="fill:none;stroke:#1a8fe3;stroke-width:0.79375;stroke-linecap:round;stroke-dasharray:0.79375, 2.38125;stroke-dashoffset:0;stroke-opacity:1;paint-order:fill markers stroke"
       d="M 119.07219,6.5680224 A 22.269224,23.389508 0 0 0 108.22196,26.636237 22.269224,23.389508 0 0 0 119.0625,46.697974 22.269224,23.389558 0 0 0 129.90302,26.636237 22.269224,23.389558 0 0 0 119.07219,6.5680224 Z" />
    <path
       id="path16976"
       style="fill:#1a8fe3;fill-opacity:1;stroke:#1a8fe3;stroke-width:1.029;stroke-linecap:round;stroke-opacity:1;paint-order:fill markers stroke"
       d="M 106.54595,29.842105 A 26.120893,26.121869 0 0 0 93.153485,49.553047 26.120893,26.121928 0 0 0 105.65711,52.758536 26.120893,26.121928 0 0 0 119.05268,49.046101 26.120893,26.121872 0 0 1 106.54595,29.842105 Z" />
    <path
       style="fill:none;stroke:#1a8fe3;stroke-width:1.029;stroke-linecap:round;stroke-opacity:1;paint-order:fill markers stroke"
       d="M 158.58862,26.636387 A 26.120893,26.121872 0 0 1 132.46774,52.758259 26.120893,26.121872 0 0 1 106.34684,26.636387 26.120893,26.121872 0 0 1 132.46774,0.51451579 26.120893,26.121872 0 0 1 158.58862,26.636387 Z"
       id="path16981" />
    <text
       xml:space="preserve"
       style="font-style:normal;font-variant:normal;font-weight:normal;font-stretch:normal;font-size:4.9389px;line-height:0.5;font-family:Corbel;-inkscape-font-specification:'Corbel, Normal';font-variant-ligatures:normal;font-variant-caps:normal;font-variant-numeric:normal;font-variant-east-asian:normal;text-align:center;text-anchor:middle;fill:#1a8fe3;fill-opacity:1;stroke:none;stroke-width:1.029;stroke-linecap:round;stroke-opacity:1;paint-order:fill markers stroke"
       x="63.590298"
       y="42.33551"
       id="text9404-63-6"><tspan
         sodipodi:role="line"
         style="font-style:normal;font-variant:normal;font-weight:normal;font-stretch:normal;font-size:4.9389px;font-family:Corbel;-inkscape-font-specification:'Corbel, Normal';font-variant-ligatures:normal;font-variant-caps:normal;font-variant-numeric:normal;font-variant-east-asian:normal;fill:#1a8fe3;fill-opacity:1;stroke:none;stroke-width:1.029"
         x="63.590298"
         y="42.33551"
         id="tspan9402-7-2">I[X;Z|Y]</tspan></text>
    <text
       xml:space="preserve"
       style="font-style:normal;font-variant:normal;font-weight:normal;font-stretch:normal;font-size:4.9389px;line-height:0.5;font-family:Corbel;-inkscape-font-specification:'Corbel, Normal';font-variant-ligatures:normal;font-variant-caps:normal;font-variant-numeric:normal;font-variant-east-asian:normal;text-align:center;text-anchor:middle;fill:#1a8fe3;fill-opacity:1;stroke:none;stroke-width:1.029;stroke-linecap:round;stroke-opacity:1;paint-order:fill markers stroke"
       x="170.94154"
       y="52.726528"
       id="text9404-63-6-3"><tspan
         sodipodi:role="line"
         style="font-style:normal;font-variant:normal;font-weight:normal;font-stretch:normal;font-size:4.9389px;font-family:Corbel;-inkscape-font-specification:'Corbel, Normal';font-variant-ligatures:normal;font-variant-caps:normal;font-variant-numeric:normal;font-variant-east-asian:normal;fill:#1a8fe3;fill-opacity:1;stroke:none;stroke-width:1.029"
         x="170.94154"
         y="52.726528"
         id="tspan9402-7-2-6">I[X;Y;Z]</tspan></text>
    <path
       style="fill:none;fill-opacity:1;stroke:#1a8fe3;stroke-width:0.79375;stroke-linecap:round;stroke-dasharray:none;stroke-dashoffset:0;stroke-opacity:1;marker-start:url(#marker19497);paint-order:fill markers stroke"
       d="m 73.792423,41.07598 c 6.380099,-0.763073 12.901137,-0.33088 19.124725,1.267525 3.720659,0.955577 7.404842,2.333688 11.246242,2.340905 0.02,3.8e-5 0.0401,3.8e-5 0.0601,0"
       id="path18514"
       inkscape:path-effect="#path-effect18516"
       inkscape:original-d="m 73.792423,41.07598 c -1.343068,8.294303 26.121122,1.080989 19.124725,1.267525 -7.495175,0.199833 3.74881,2.405311 11.246242,2.340905 0,0 0.0404,2.64e-4 0.0601,0"
       sodipodi:nodetypes="cscc" />
    <path
       style="fill:none;fill-opacity:1;stroke:#1a8fe3;stroke-width:0.79375;stroke-linecap:round;stroke-dasharray:none;stroke-dashoffset:0;stroke-opacity:1;marker-start:url(#marker19497);paint-order:fill markers stroke"
       d="m 161.90582,51.282166 c -3.9814,0.430061 -8.0139,0.385028 -11.9847,-0.133838 -11.76651,-1.537535 -22.92365,-7.372642 -30.89866,-16.159794"
       id="path19572"
       inkscape:path-effect="#path-effect19576"
       inkscape:original-d="m 161.90582,51.282166 c 1.13667,9.393724 -14.97782,0.935994 -11.9847,-0.133838 1.75507,-0.627314 -30.91836,-16.15953 -30.89866,-16.159794"
       sodipodi:nodetypes="csc" />
  </g>
  <metadata
     id="metadata20086">
    <rdf:RDF>
      <cc:Work
         rdf:about="">
        <dc:title>information-theory-diagram</dc:title>
      </cc:Work>
    </rdf:RDF>
  </metadata>
</svg>
