<?xml version="1.0" encoding="UTF-8" standalone="no"?>
<!-- Created with Inkscape (http://www.inkscape.org/) -->

<svg
   width="474.22052"
   height="80.289017"
   viewBox="0 0 125.47084 21.243136"
   version="1.1"
   id="svg1"
   inkscape:version="1.4.3 (1:1.4.3+202512261035+0d15f75042)"
   sodipodi:docname="residual_connections.svg"
   xmlns:inkscape="http://www.inkscape.org/namespaces/inkscape"
   xmlns:sodipodi="http://sodipodi.sourceforge.net/DTD/sodipodi-0.dtd"
   xmlns="http://www.w3.org/2000/svg"
   xmlns:svg="http://www.w3.org/2000/svg"
   xmlns:ns8="http://www.iki.fi/pav/software/textext/">
  <sodipodi:namedview
     id="namedview1"
     pagecolor="#ffffff"
     bordercolor="#111111"
     borderopacity="1"
     inkscape:showpageshadow="0"
     inkscape:pageopacity="0"
     inkscape:pagecheckerboard="1"
     inkscape:deskcolor="#d1d1d1"
     inkscape:document-units="px"
     showgrid="true"
     inkscape:zoom="1.4142136"
     inkscape:cx="196.92924"
     inkscape:cy="35.001786"
     inkscape:window-width="1920"
     inkscape:window-height="1043"
     inkscape:window-x="0"
     inkscape:window-y="0"
     inkscape:window-maximized="1"
     inkscape:current-layer="g42"
     inkscape:connector-spacing="25">
    <inkscape:grid
       id="grid1"
       units="px"
       originx="-3.4104169"
       originy="-32.652391"
       spacingx="1.3229166"
       spacingy="1.3229166"
       empcolor="#0099e5"
       empopacity="0.30196078"
       color="#0099e5"
       opacity="0.14901961"
       empspacing="5"
       enabled="true"
       visible="true" />
  </sodipodi:namedview>
  <defs
     id="defs1" />
  <g
     inkscape:label="Layer 1"
     inkscape:groupmode="layer"
     id="layer1"
     transform="translate(-3.410417,-32.652389)">
    <g
       id="g42"
       transform="translate(0,-22.952605)">
      <path
         style="display:inline;fill:none;fill-rule:evenodd;stroke:#000000;stroke-width:0.79375;stroke-linecap:butt;stroke-linejoin:miter;stroke-dasharray:none;stroke-opacity:1"
         d="m 46.302082,68.953127 c 0,10.606718 0,-3.108856 0,7.497862 l 35.06556,-0.02339 c 3.968749,-0.0026 4.621942,-0.719336 4.62194,-4.688086 l -10e-7,-2.624938"
         id="path8"
         sodipodi:nodetypes="ccssc" />
      <path
         style="fill:none;fill-rule:evenodd;stroke:#000000;stroke-width:0.79375;stroke-linecap:butt;stroke-linejoin:miter;stroke-dasharray:none;stroke-opacity:1"
         d="m 35.983332,66.145836 7.511459,0"
         id="path1"
         inkscape:connector-type="polyline"
         inkscape:connector-curvature="0"
         inkscape:connection-start="#rect2"
         inkscape:connection-end="#circle5" />
      <path
         style="fill:none;fill-rule:evenodd;stroke:#000000;stroke-width:0.79375;stroke-linecap:butt;stroke-linejoin:miter;stroke-dasharray:none;stroke-opacity:1"
         d="m 9.421875,66.145836 7.511457,0"
         id="path2"
         inkscape:connector-type="polyline"
         inkscape:connector-curvature="0"
         inkscape:connection-start="#circle5-3"
         inkscape:connection-end="#rect2" />
      <rect
         style="display:inline;fill:#ffffff;fill-opacity:1;stroke:#000000;stroke-width:0.79375;stroke-linecap:square;stroke-dasharray:none;stroke-opacity:1;paint-order:fill markers stroke"
         id="rect2"
         width="19.049999"
         height="12.435416"
         x="16.933332"
         y="59.928127"
         inkscape:connector-avoid="true" />
      <circle
         style="display:inline;fill:#ffffff;fill-opacity:1;stroke:#000000;stroke-width:0.79375;stroke-linecap:square;stroke-dasharray:none;stroke-opacity:1;paint-order:fill markers stroke"
         id="circle5"
         cx="46.302082"
         cy="66.145836"
         inkscape:connector-avoid="true"
         r="2.8072915" />
      <rect
         style="display:inline;fill:#ffffff;fill-opacity:1;stroke:#000000;stroke-width:0.79375;stroke-linecap:square;stroke-dasharray:none;stroke-opacity:1;paint-order:fill markers stroke"
         id="rect2-1"
         width="19.049999"
         height="12.435416"
         x="56.620834"
         y="59.928127"
         inkscape:connector-avoid="true" />
      <circle
         style="display:inline;fill:#ffffff;fill-opacity:1;stroke:#000000;stroke-width:0.79375;stroke-linecap:square;stroke-dasharray:none;stroke-opacity:1;paint-order:fill markers stroke"
         id="circle5-2"
         cx="85.989586"
         cy="66.145836"
         inkscape:connector-avoid="true"
         r="2.8072915" />
      <circle
         style="display:inline;fill:#ffffff;fill-opacity:1;stroke:#000000;stroke-width:0.79375;stroke-linecap:square;stroke-dasharray:none;stroke-opacity:1;paint-order:fill markers stroke"
         id="circle5-3"
         cx="6.6145835"
         cy="66.145836"
         inkscape:connector-avoid="true"
         r="2.8072915" />
      <rect
         style="display:inline;fill:#ffffff;fill-opacity:1;stroke:#000000;stroke-width:0.79375;stroke-linecap:square;stroke-dasharray:none;stroke-opacity:1;paint-order:fill markers stroke"
         id="rect3"
         width="19.049999"
         height="12.435416"
         x="96.308334"
         y="59.928123"
         inkscape:connector-avoid="true" />
      <circle
         style="display:inline;fill:#ffffff;fill-opacity:1;stroke:#000000;stroke-width:0.79375;stroke-linecap:square;stroke-dasharray:none;stroke-opacity:1;paint-order:fill markers stroke"
         id="circle3"
         cx="125.67709"
         cy="66.145828"
         inkscape:connector-avoid="true"
         r="2.8072915" />
      <path
         style="fill:none;fill-rule:evenodd;stroke:#000000;stroke-width:0.79375;stroke-linecap:butt;stroke-linejoin:miter;stroke-dasharray:none;stroke-opacity:1"
         d="m 49.109374,66.145836 7.51146,0"
         id="path3"
         inkscape:connector-type="polyline"
         inkscape:connector-curvature="0"
         inkscape:connection-end="#rect2-1"
         inkscape:connection-start="#circle5" />
      <path
         style="fill:none;fill-rule:evenodd;stroke:#000000;stroke-width:0.79375;stroke-linecap:butt;stroke-linejoin:miter;stroke-dasharray:none;stroke-opacity:1"
         d="m 75.670834,66.145836 7.51146,0"
         id="path4"
         inkscape:connector-type="polyline"
         inkscape:connector-curvature="0"
         inkscape:connection-end="#circle5-2"
         inkscape:connection-start="#rect2-1" />
      <path
         style="fill:none;fill-rule:evenodd;stroke:#000000;stroke-width:0.79375;stroke-linecap:butt;stroke-linejoin:miter;stroke-dasharray:none;stroke-opacity:1"
         d="m 88.796877,66.145835 7.511457,-1e-6"
         id="path5"
         inkscape:connector-type="polyline"
         inkscape:connector-curvature="0"
         inkscape:connection-end="#rect3"
         inkscape:connection-start="#circle5-2" />
      <path
         style="fill:none;fill-rule:evenodd;stroke:#000000;stroke-width:0.79375;stroke-linecap:butt;stroke-linejoin:miter;stroke-dasharray:none;stroke-opacity:1"
         d="m 115.35833,66.14583 7.51147,-10e-7"
         id="path6"
         inkscape:connector-type="polyline"
         inkscape:connector-curvature="0"
         inkscape:connection-end="#circle3"
         inkscape:connection-start="#rect3" />
      <path
         style="display:inline;fill:none;fill-rule:evenodd;stroke:#000000;stroke-width:0.79375;stroke-linecap:butt;stroke-linejoin:miter;stroke-dasharray:none;stroke-opacity:1"
         d="m 6.6145833,63.499996 c 0,-10.606718 -2e-7,3.108856 -2e-7,-7.497862 l 35.0655599,0.02339 c 3.968749,0.0026 4.621942,0.719336 4.62194,4.688086 l -1e-6,2.624938"
         id="path7"
         sodipodi:nodetypes="ccssc" />
      <g
         id="g4250"
         transform="matrix(0.64294941,0,0,0.64294941,23.656318,62.838544)"
         ns8:version="1.12.0"
         ns8:texconverter="pdflatex"
         ns8:pdfconverter="inkscape"
         ns8:text="$f^{1}$"
         ns8:preamble="/home/ioverho/.config/inkscape/extensions/textext/default_packages.tex"
         ns8:scale="0.637659803048943"
         ns8:alignment="middle center"
         ns8:inkscapeversion="1.4.3"
         ns8:jacobian_sqrt="0.224952"
         style="stroke-width:0.349876">
        <defs
           id="defs4386">
          <g
             id="g82">
            <g
               id="g6678">
              <path
                 d="m 3.65625,-3.984375 h 0.859375 c 0.203125,0 0.296875,0 0.296875,-0.203125 0,-0.109375 -0.09375,-0.109375 -0.265625,-0.109375 H 3.71875 L 3.921875,-5.4375 c 0.046875,-0.203125 0.1875,-0.90625 0.25,-1.03125 0.078125,-0.1875 0.25,-0.34375 0.46875,-0.34375 0.03125,0 0.296875,0 0.484375,0.1875 -0.4375,0.03125 -0.546875,0.390625 -0.546875,0.53125 0,0.234375 0.1875,0.359375 0.375,0.359375 C 5.21875,-5.734375 5.5,-5.96875 5.5,-6.34375 c 0,-0.453125 -0.453125,-0.6875 -0.859375,-0.6875 -0.34375,0 -0.96875,0.1875 -1.265625,1.171875 -0.0625,0.203125 -0.09375,0.3125 -0.328125,1.5625 h -0.6875 c -0.203125,0 -0.3125,0 -0.3125,0.1875 0,0.125 0.09375,0.125 0.28125,0.125 h 0.65625 L 2.25,-0.046875 c -0.1875,0.96875 -0.359375,1.875 -0.875,1.875 -0.046875,0 -0.28125,0 -0.484375,-0.1875 C 1.359375,1.609375 1.453125,1.25 1.453125,1.109375 1.453125,0.875 1.265625,0.75 1.078125,0.75 0.8125,0.75 0.53125,0.984375 0.53125,1.359375 c 0,0.4375 0.4375,0.6875 0.84375,0.6875 0.546875,0 0.953125,-0.59375 1.125,-0.96875 0.328125,-0.625 0.546875,-1.828125 0.5625,-1.90625 z m 0,0"
                 id="path4783" />
            </g>
            <g
               id="g9562">
              <path
                 d="m 2.328125,-4.4375 c 0,-0.1875 0,-0.1875 -0.203125,-0.1875 -0.453125,0.4375 -1.078125,0.4375 -1.359375,0.4375 v 0.25 c 0.15625,0 0.625,0 1,-0.1875 v 3.546875 c 0,0.234375 0,0.328125 -0.6875,0.328125 H 0.8125 V 0 c 0.125,0 0.984375,-0.03125 1.234375,-0.03125 0.21875,0 1.09375,0.03125 1.25,0.03125 V -0.25 H 3.03125 c -0.703125,0 -0.703125,-0.09375 -0.703125,-0.328125 z m 0,0"
                 id="path5267" />
            </g>
          </g>
        </defs>
        <g
           fill="#000000"
           fill-opacity="1"
           id="g2040"
           transform="translate(-149.243,-126.524)"
           style="stroke-width:0.349876">
          <g
             transform="translate(148.712,134.765)"
             id="g9624"
             style="stroke-width:0.349876">
            <path
               d="m 3.65625,-3.984375 h 0.859375 c 0.203125,0 0.296875,0 0.296875,-0.203125 0,-0.109375 -0.09375,-0.109375 -0.265625,-0.109375 H 3.71875 L 3.921875,-5.4375 c 0.046875,-0.203125 0.1875,-0.90625 0.25,-1.03125 0.078125,-0.1875 0.25,-0.34375 0.46875,-0.34375 0.03125,0 0.296875,0 0.484375,0.1875 -0.4375,0.03125 -0.546875,0.390625 -0.546875,0.53125 0,0.234375 0.1875,0.359375 0.375,0.359375 C 5.21875,-5.734375 5.5,-5.96875 5.5,-6.34375 c 0,-0.453125 -0.453125,-0.6875 -0.859375,-0.6875 -0.34375,0 -0.96875,0.1875 -1.265625,1.171875 -0.0625,0.203125 -0.09375,0.3125 -0.328125,1.5625 h -0.6875 c -0.203125,0 -0.3125,0 -0.3125,0.1875 0,0.125 0.09375,0.125 0.28125,0.125 h 0.65625 L 2.25,-0.046875 c -0.1875,0.96875 -0.359375,1.875 -0.875,1.875 -0.046875,0 -0.28125,0 -0.484375,-0.1875 C 1.359375,1.609375 1.453125,1.25 1.453125,1.109375 1.453125,0.875 1.265625,0.75 1.078125,0.75 0.8125,0.75 0.53125,0.984375 0.53125,1.359375 c 0,0.4375 0.4375,0.6875 0.84375,0.6875 0.546875,0 0.953125,-0.59375 1.125,-0.96875 0.328125,-0.625 0.546875,-1.828125 0.5625,-1.90625 z m 0,0"
               id="path1674"
               style="stroke-width:0.349876" />
          </g>
        </g>
        <g
           fill="#000000"
           fill-opacity="1"
           id="g7557"
           transform="translate(-149.243,-126.524)"
           style="stroke-width:0.349876">
          <g
             transform="translate(154.662,131.149)"
             id="g8931"
             style="stroke-width:0.349876">
            <path
               d="m 2.328125,-4.4375 c 0,-0.1875 0,-0.1875 -0.203125,-0.1875 -0.453125,0.4375 -1.078125,0.4375 -1.359375,0.4375 v 0.25 c 0.15625,0 0.625,0 1,-0.1875 v 3.546875 c 0,0.234375 0,0.328125 -0.6875,0.328125 H 0.8125 V 0 c 0.125,0 0.984375,-0.03125 1.234375,-0.03125 0.21875,0 1.09375,0.03125 1.25,0.03125 V -0.25 H 3.03125 c -0.703125,0 -0.703125,-0.09375 -0.703125,-0.328125 z m 0,0"
               id="path1090"
               style="stroke-width:0.349876" />
          </g>
        </g>
      </g>
      <g
         id="g18"
         transform="matrix(0.642949,0,0,0.642949,102.94091,62.838542)"
         ns8:version="1.12.0"
         ns8:texconverter="pdflatex"
         ns8:pdfconverter="inkscape"
         ns8:text="$f^{3}$"
         ns8:preamble="/home/ioverho/.config/inkscape/extensions/textext/default_packages.tex"
         ns8:scale="1.8225354482335525"
         ns8:alignment="middle center"
         ns8:inkscapeversion="1.4.3"
         ns8:jacobian_sqrt="0.642949"
         style="stroke-width:0">
        <defs
           id="defs5086"
           style="stroke-width:0">
          <g
             id="g2619"
             style="stroke-width:0">
            <g
               id="g3507"
               style="stroke-width:0">
              <path
                 d="m 3.65625,-3.984375 h 0.859375 c 0.203125,0 0.296875,0 0.296875,-0.203125 0,-0.109375 -0.09375,-0.109375 -0.265625,-0.109375 H 3.71875 L 3.921875,-5.4375 c 0.046875,-0.203125 0.1875,-0.90625 0.25,-1.03125 0.078125,-0.1875 0.25,-0.34375 0.46875,-0.34375 0.03125,0 0.296875,0 0.484375,0.1875 -0.4375,0.03125 -0.546875,0.390625 -0.546875,0.53125 0,0.234375 0.1875,0.359375 0.375,0.359375 C 5.21875,-5.734375 5.5,-5.96875 5.5,-6.34375 c 0,-0.453125 -0.453125,-0.6875 -0.859375,-0.6875 -0.34375,0 -0.96875,0.1875 -1.265625,1.171875 -0.0625,0.203125 -0.09375,0.3125 -0.328125,1.5625 h -0.6875 c -0.203125,0 -0.3125,0 -0.3125,0.1875 0,0.125 0.09375,0.125 0.28125,0.125 h 0.65625 L 2.25,-0.046875 c -0.1875,0.96875 -0.359375,1.875 -0.875,1.875 -0.046875,0 -0.28125,0 -0.484375,-0.1875 C 1.359375,1.609375 1.453125,1.25 1.453125,1.109375 1.453125,0.875 1.265625,0.75 1.078125,0.75 0.8125,0.75 0.53125,0.984375 0.53125,1.359375 c 0,0.4375 0.4375,0.6875 0.84375,0.6875 0.546875,0 0.953125,-0.59375 1.125,-0.96875 0.328125,-0.625 0.546875,-1.828125 0.5625,-1.90625 z m 0,0"
                 id="path6309"
                 style="stroke-width:0" />
            </g>
            <g
               id="g6946"
               style="stroke-width:0">
              <path
                 d="m 1.90625,-2.328125 c 0.546875,0 0.9375,0.375 0.9375,1.125 0,0.859375 -0.515625,1.125 -0.90625,1.125 -0.28125,0 -0.90625,-0.078125 -1.1875,-0.5 0.328125,0 0.40625,-0.234375 0.40625,-0.390625 0,-0.21875 -0.171875,-0.375 -0.390625,-0.375 -0.1875,0 -0.390625,0.125 -0.390625,0.40625 0,0.65625 0.71875,1.078125 1.5625,1.078125 0.96875,0 1.640625,-0.65625 1.640625,-1.34375 0,-0.546875 -0.4375,-1.09375 -1.203125,-1.25 0.71875,-0.265625 0.984375,-0.78125 0.984375,-1.21875 0,-0.546875 -0.625,-0.953125 -1.40625,-0.953125 -0.765625,0 -1.359375,0.375 -1.359375,0.9375 0,0.234375 0.15625,0.359375 0.359375,0.359375 0.21875,0 0.359375,-0.15625 0.359375,-0.34375 0,-0.203125 -0.140625,-0.359375 -0.359375,-0.375 0.25,-0.296875 0.71875,-0.375 0.984375,-0.375 0.3125,0 0.75,0.15625 0.75,0.75 0,0.296875 -0.09375,0.625 -0.28125,0.828125 -0.21875,0.265625 -0.421875,0.28125 -0.765625,0.3125 -0.171875,0.015625 -0.1875,0.015625 -0.21875,0.015625 -0.015625,0 -0.078125,0.015625 -0.078125,0.09375 0,0.09375 0.0625,0.09375 0.1875,0.09375 z m 0,0"
                 id="path700"
                 style="stroke-width:0" />
            </g>
          </g>
        </defs>
        <g
           fill="#000000"
           fill-opacity="1"
           id="g3651"
           transform="translate(-149.243,-126.524)"
           style="stroke-width:0">
          <g
             transform="translate(148.712,134.765)"
             id="g8270"
             style="stroke-width:0">
            <path
               d="m 3.65625,-3.984375 h 0.859375 c 0.203125,0 0.296875,0 0.296875,-0.203125 0,-0.109375 -0.09375,-0.109375 -0.265625,-0.109375 H 3.71875 L 3.921875,-5.4375 c 0.046875,-0.203125 0.1875,-0.90625 0.25,-1.03125 0.078125,-0.1875 0.25,-0.34375 0.46875,-0.34375 0.03125,0 0.296875,0 0.484375,0.1875 -0.4375,0.03125 -0.546875,0.390625 -0.546875,0.53125 0,0.234375 0.1875,0.359375 0.375,0.359375 C 5.21875,-5.734375 5.5,-5.96875 5.5,-6.34375 c 0,-0.453125 -0.453125,-0.6875 -0.859375,-0.6875 -0.34375,0 -0.96875,0.1875 -1.265625,1.171875 -0.0625,0.203125 -0.09375,0.3125 -0.328125,1.5625 h -0.6875 c -0.203125,0 -0.3125,0 -0.3125,0.1875 0,0.125 0.09375,0.125 0.28125,0.125 h 0.65625 L 2.25,-0.046875 c -0.1875,0.96875 -0.359375,1.875 -0.875,1.875 -0.046875,0 -0.28125,0 -0.484375,-0.1875 C 1.359375,1.609375 1.453125,1.25 1.453125,1.109375 1.453125,0.875 1.265625,0.75 1.078125,0.75 0.8125,0.75 0.53125,0.984375 0.53125,1.359375 c 0,0.4375 0.4375,0.6875 0.84375,0.6875 0.546875,0 0.953125,-0.59375 1.125,-0.96875 0.328125,-0.625 0.546875,-1.828125 0.5625,-1.90625 z m 0,0"
               id="path2331"
               style="stroke-width:0" />
          </g>
        </g>
        <g
           fill="#000000"
           fill-opacity="1"
           id="g8105"
           transform="translate(-149.243,-126.524)"
           style="stroke-width:0">
          <g
             transform="translate(154.662,131.149)"
             id="g2448"
             style="stroke-width:0">
            <path
               d="m 1.90625,-2.328125 c 0.546875,0 0.9375,0.375 0.9375,1.125 0,0.859375 -0.515625,1.125 -0.90625,1.125 -0.28125,0 -0.90625,-0.078125 -1.1875,-0.5 0.328125,0 0.40625,-0.234375 0.40625,-0.390625 0,-0.21875 -0.171875,-0.375 -0.390625,-0.375 -0.1875,0 -0.390625,0.125 -0.390625,0.40625 0,0.65625 0.71875,1.078125 1.5625,1.078125 0.96875,0 1.640625,-0.65625 1.640625,-1.34375 0,-0.546875 -0.4375,-1.09375 -1.203125,-1.25 0.71875,-0.265625 0.984375,-0.78125 0.984375,-1.21875 0,-0.546875 -0.625,-0.953125 -1.40625,-0.953125 -0.765625,0 -1.359375,0.375 -1.359375,0.9375 0,0.234375 0.15625,0.359375 0.359375,0.359375 0.21875,0 0.359375,-0.15625 0.359375,-0.34375 0,-0.203125 -0.140625,-0.359375 -0.359375,-0.375 0.25,-0.296875 0.71875,-0.375 0.984375,-0.375 0.3125,0 0.75,0.15625 0.75,0.75 0,0.296875 -0.09375,0.625 -0.28125,0.828125 -0.21875,0.265625 -0.421875,0.28125 -0.765625,0.3125 -0.171875,0.015625 -0.1875,0.015625 -0.21875,0.015625 -0.015625,0 -0.078125,0.015625 -0.078125,0.09375 0,0.09375 0.0625,0.09375 0.1875,0.09375 z m 0,0"
               id="path7587"
               style="stroke-width:0" />
          </g>
        </g>
      </g>
      <g
         id="g26"
         transform="matrix(0.642949,0,0,0.642949,63.273499,62.838546)"
         ns8:version="1.12.0"
         ns8:texconverter="pdflatex"
         ns8:pdfconverter="inkscape"
         ns8:text="$f^{2}$"
         ns8:preamble="/home/ioverho/.config/inkscape/extensions/textext/default_packages.tex"
         ns8:scale="1.8225354482335525"
         ns8:alignment="middle center"
         ns8:inkscapeversion="1.4.3"
         ns8:jacobian_sqrt="0.642949"
         style="stroke-width:0">
        <defs
           id="defs9784"
           style="stroke-width:0">
          <g
             id="g1433"
             style="stroke-width:0">
            <g
               id="g9946"
               style="stroke-width:0">
              <path
                 d="m 3.65625,-3.984375 h 0.859375 c 0.203125,0 0.296875,0 0.296875,-0.203125 0,-0.109375 -0.09375,-0.109375 -0.265625,-0.109375 H 3.71875 L 3.921875,-5.4375 c 0.046875,-0.203125 0.1875,-0.90625 0.25,-1.03125 0.078125,-0.1875 0.25,-0.34375 0.46875,-0.34375 0.03125,0 0.296875,0 0.484375,0.1875 -0.4375,0.03125 -0.546875,0.390625 -0.546875,0.53125 0,0.234375 0.1875,0.359375 0.375,0.359375 C 5.21875,-5.734375 5.5,-5.96875 5.5,-6.34375 c 0,-0.453125 -0.453125,-0.6875 -0.859375,-0.6875 -0.34375,0 -0.96875,0.1875 -1.265625,1.171875 -0.0625,0.203125 -0.09375,0.3125 -0.328125,1.5625 h -0.6875 c -0.203125,0 -0.3125,0 -0.3125,0.1875 0,0.125 0.09375,0.125 0.28125,0.125 h 0.65625 L 2.25,-0.046875 c -0.1875,0.96875 -0.359375,1.875 -0.875,1.875 -0.046875,0 -0.28125,0 -0.484375,-0.1875 C 1.359375,1.609375 1.453125,1.25 1.453125,1.109375 1.453125,0.875 1.265625,0.75 1.078125,0.75 0.8125,0.75 0.53125,0.984375 0.53125,1.359375 c 0,0.4375 0.4375,0.6875 0.84375,0.6875 0.546875,0 0.953125,-0.59375 1.125,-0.96875 0.328125,-0.625 0.546875,-1.828125 0.5625,-1.90625 z m 0,0"
                 id="path9605"
                 style="stroke-width:0" />
            </g>
            <g
               id="g3229"
               style="stroke-width:0">
              <path
                 d="M 3.515625,-1.265625 H 3.28125 c -0.015625,0.15625 -0.09375,0.5625 -0.1875,0.625 C 3.046875,-0.59375 2.515625,-0.59375 2.40625,-0.59375 H 1.125 c 0.734375,-0.640625 0.984375,-0.84375 1.390625,-1.171875 0.515625,-0.40625 1,-0.84375 1,-1.5 0,-0.84375 -0.734375,-1.359375 -1.625,-1.359375 -0.859375,0 -1.453125,0.609375 -1.453125,1.25 0,0.34375 0.296875,0.390625 0.375,0.390625 0.15625,0 0.359375,-0.125 0.359375,-0.375 0,-0.125 -0.046875,-0.375 -0.40625,-0.375 C 0.984375,-4.21875 1.453125,-4.375 1.78125,-4.375 c 0.703125,0 1.0625,0.546875 1.0625,1.109375 0,0.609375 -0.4375,1.078125 -0.65625,1.328125 L 0.515625,-0.265625 C 0.4375,-0.203125 0.4375,-0.1875 0.4375,0 h 2.875 z m 0,0"
                 id="path8482"
                 style="stroke-width:0" />
            </g>
          </g>
        </defs>
        <g
           fill="#000000"
           fill-opacity="1"
           id="g6751"
           transform="translate(-149.243,-126.524)"
           style="stroke-width:0">
          <g
             transform="translate(148.712,134.765)"
             id="g7454"
             style="stroke-width:0">
            <path
               d="m 3.65625,-3.984375 h 0.859375 c 0.203125,0 0.296875,0 0.296875,-0.203125 0,-0.109375 -0.09375,-0.109375 -0.265625,-0.109375 H 3.71875 L 3.921875,-5.4375 c 0.046875,-0.203125 0.1875,-0.90625 0.25,-1.03125 0.078125,-0.1875 0.25,-0.34375 0.46875,-0.34375 0.03125,0 0.296875,0 0.484375,0.1875 -0.4375,0.03125 -0.546875,0.390625 -0.546875,0.53125 0,0.234375 0.1875,0.359375 0.375,0.359375 C 5.21875,-5.734375 5.5,-5.96875 5.5,-6.34375 c 0,-0.453125 -0.453125,-0.6875 -0.859375,-0.6875 -0.34375,0 -0.96875,0.1875 -1.265625,1.171875 -0.0625,0.203125 -0.09375,0.3125 -0.328125,1.5625 h -0.6875 c -0.203125,0 -0.3125,0 -0.3125,0.1875 0,0.125 0.09375,0.125 0.28125,0.125 h 0.65625 L 2.25,-0.046875 c -0.1875,0.96875 -0.359375,1.875 -0.875,1.875 -0.046875,0 -0.28125,0 -0.484375,-0.1875 C 1.359375,1.609375 1.453125,1.25 1.453125,1.109375 1.453125,0.875 1.265625,0.75 1.078125,0.75 0.8125,0.75 0.53125,0.984375 0.53125,1.359375 c 0,0.4375 0.4375,0.6875 0.84375,0.6875 0.546875,0 0.953125,-0.59375 1.125,-0.96875 0.328125,-0.625 0.546875,-1.828125 0.5625,-1.90625 z m 0,0"
               id="path6188"
               style="stroke-width:0" />
          </g>
        </g>
        <g
           fill="#000000"
           fill-opacity="1"
           id="g3606"
           transform="translate(-149.243,-126.524)"
           style="stroke-width:0">
          <g
             transform="translate(154.662,131.149)"
             id="g8203"
             style="stroke-width:0">
            <path
               d="M 3.515625,-1.265625 H 3.28125 c -0.015625,0.15625 -0.09375,0.5625 -0.1875,0.625 C 3.046875,-0.59375 2.515625,-0.59375 2.40625,-0.59375 H 1.125 c 0.734375,-0.640625 0.984375,-0.84375 1.390625,-1.171875 0.515625,-0.40625 1,-0.84375 1,-1.5 0,-0.84375 -0.734375,-1.359375 -1.625,-1.359375 -0.859375,0 -1.453125,0.609375 -1.453125,1.25 0,0.34375 0.296875,0.390625 0.375,0.390625 0.15625,0 0.359375,-0.125 0.359375,-0.375 0,-0.125 -0.046875,-0.375 -0.40625,-0.375 C 0.984375,-4.21875 1.453125,-4.375 1.78125,-4.375 c 0.703125,0 1.0625,0.546875 1.0625,1.109375 0,0.609375 -0.4375,1.078125 -0.65625,1.328125 L 0.515625,-0.265625 C 0.4375,-0.203125 0.4375,-0.1875 0.4375,0 h 2.875 z m 0,0"
               id="path2703"
               style="stroke-width:0" />
          </g>
        </g>
      </g>
      <g
         id="g3810"
         transform="matrix(0.39843136,0,0,0.39843136,5.2949788,64.82272)"
         ns8:version="1.12.0"
         ns8:texconverter="pdflatex"
         ns8:pdfconverter="inkscape"
         ns8:text="$+$"
         ns8:preamble="/home/ioverho/.config/inkscape/extensions/textext/default_packages.tex"
         ns8:scale="1.8225354482335525"
         ns8:alignment="middle center"
         ns8:inkscapeversion="1.4.3"
         ns8:jacobian_sqrt="0.64295"
         style="stroke-width:1.6137">
        <defs
           id="defs9356">
          <g
             id="g8620">
            <g
               id="g3627">
              <path
                 d="m 4.078125,-2.296875 h 2.78125 C 7,-2.296875 7.1875,-2.296875 7.1875,-2.5 7.1875,-2.6875 7,-2.6875 6.859375,-2.6875 h -2.78125 v -2.796875 c 0,-0.140625 0,-0.328125 -0.203125,-0.328125 -0.203125,0 -0.203125,0.1875 -0.203125,0.328125 V -2.6875 h -2.78125 c -0.140625,0 -0.328125,0 -0.328125,0.1875 0,0.203125 0.1875,0.203125 0.328125,0.203125 h 2.78125 V 0.5 c 0,0.140625 0,0.328125 0.203125,0.328125 0.203125,0 0.203125,-0.1875 0.203125,-0.328125 z m 0,0"
                 id="path6702" />
            </g>
          </g>
        </defs>
        <g
           fill="#000000"
           fill-opacity="1"
           id="g5308"
           transform="translate(-149.275,-128.952)"
           style="stroke-width:1.6137">
          <g
             transform="translate(148.712,134.765)"
             id="g2287"
             style="stroke-width:1.6137">
            <path
               d="m 4.078125,-2.296875 h 2.78125 C 7,-2.296875 7.1875,-2.296875 7.1875,-2.5 7.1875,-2.6875 7,-2.6875 6.859375,-2.6875 h -2.78125 v -2.796875 c 0,-0.140625 0,-0.328125 -0.203125,-0.328125 -0.203125,0 -0.203125,0.1875 -0.203125,0.328125 V -2.6875 h -2.78125 c -0.140625,0 -0.328125,0 -0.328125,0.1875 0,0.203125 0.1875,0.203125 0.328125,0.203125 h 2.78125 V 0.5 c 0,0.140625 0,0.328125 0.203125,0.328125 0.203125,0 0.203125,-0.1875 0.203125,-0.328125 z m 0,0"
               id="path2131"
               style="stroke-width:1.6137" />
          </g>
        </g>
      </g>
      <g
         id="g31"
         transform="matrix(0.39843136,0,0,0.39843136,84.669981,64.82272)"
         ns8:version="1.12.0"
         ns8:texconverter="pdflatex"
         ns8:pdfconverter="inkscape"
         ns8:text="$+$"
         ns8:preamble="/home/ioverho/.config/inkscape/extensions/textext/default_packages.tex"
         ns8:scale="1.8225354482335525"
         ns8:alignment="middle center"
         ns8:inkscapeversion="1.4.3"
         ns8:jacobian_sqrt="0.64295"
         style="stroke-width:1.6137">
        <defs
           id="defs28">
          <g
             id="g28">
            <g
               id="g27">
              <path
                 d="m 4.078125,-2.296875 h 2.78125 C 7,-2.296875 7.1875,-2.296875 7.1875,-2.5 7.1875,-2.6875 7,-2.6875 6.859375,-2.6875 h -2.78125 v -2.796875 c 0,-0.140625 0,-0.328125 -0.203125,-0.328125 -0.203125,0 -0.203125,0.1875 -0.203125,0.328125 V -2.6875 h -2.78125 c -0.140625,0 -0.328125,0 -0.328125,0.1875 0,0.203125 0.1875,0.203125 0.328125,0.203125 h 2.78125 V 0.5 c 0,0.140625 0,0.328125 0.203125,0.328125 0.203125,0 0.203125,-0.1875 0.203125,-0.328125 z m 0,0"
                 id="path26" />
            </g>
          </g>
        </defs>
        <g
           fill="#000000"
           fill-opacity="1"
           id="g30"
           transform="translate(-149.275,-128.952)"
           style="stroke-width:1.6137">
          <g
             transform="translate(148.712,134.765)"
             id="g29"
             style="stroke-width:1.6137">
            <path
               d="m 4.078125,-2.296875 h 2.78125 C 7,-2.296875 7.1875,-2.296875 7.1875,-2.5 7.1875,-2.6875 7,-2.6875 6.859375,-2.6875 h -2.78125 v -2.796875 c 0,-0.140625 0,-0.328125 -0.203125,-0.328125 -0.203125,0 -0.203125,0.1875 -0.203125,0.328125 V -2.6875 h -2.78125 c -0.140625,0 -0.328125,0 -0.328125,0.1875 0,0.203125 0.1875,0.203125 0.328125,0.203125 h 2.78125 V 0.5 c 0,0.140625 0,0.328125 0.203125,0.328125 0.203125,0 0.203125,-0.1875 0.203125,-0.328125 z m 0,0"
               id="path28"
               style="stroke-width:1.6137" />
          </g>
        </g>
      </g>
      <g
         id="g36"
         transform="matrix(0.39843136,0,0,0.39843136,44.982477,64.82272)"
         ns8:version="1.12.0"
         ns8:texconverter="pdflatex"
         ns8:pdfconverter="inkscape"
         ns8:text="$+$"
         ns8:preamble="/home/ioverho/.config/inkscape/extensions/textext/default_packages.tex"
         ns8:scale="1.8225354482335525"
         ns8:alignment="middle center"
         ns8:inkscapeversion="1.4.3"
         ns8:jacobian_sqrt="0.64295"
         style="stroke-width:1.6137">
        <defs
           id="defs33">
          <g
             id="g33">
            <g
               id="g32">
              <path
                 d="m 4.078125,-2.296875 h 2.78125 C 7,-2.296875 7.1875,-2.296875 7.1875,-2.5 7.1875,-2.6875 7,-2.6875 6.859375,-2.6875 h -2.78125 v -2.796875 c 0,-0.140625 0,-0.328125 -0.203125,-0.328125 -0.203125,0 -0.203125,0.1875 -0.203125,0.328125 V -2.6875 h -2.78125 c -0.140625,0 -0.328125,0 -0.328125,0.1875 0,0.203125 0.1875,0.203125 0.328125,0.203125 h 2.78125 V 0.5 c 0,0.140625 0,0.328125 0.203125,0.328125 0.203125,0 0.203125,-0.1875 0.203125,-0.328125 z m 0,0"
                 id="path31" />
            </g>
          </g>
        </defs>
        <g
           fill="#000000"
           fill-opacity="1"
           id="g35"
           transform="translate(-149.275,-128.952)"
           style="stroke-width:1.6137">
          <g
             transform="translate(148.712,134.765)"
             id="g34"
             style="stroke-width:1.6137">
            <path
               d="m 4.078125,-2.296875 h 2.78125 C 7,-2.296875 7.1875,-2.296875 7.1875,-2.5 7.1875,-2.6875 7,-2.6875 6.859375,-2.6875 h -2.78125 v -2.796875 c 0,-0.140625 0,-0.328125 -0.203125,-0.328125 -0.203125,0 -0.203125,0.1875 -0.203125,0.328125 V -2.6875 h -2.78125 c -0.140625,0 -0.328125,0 -0.328125,0.1875 0,0.203125 0.1875,0.203125 0.328125,0.203125 h 2.78125 V 0.5 c 0,0.140625 0,0.328125 0.203125,0.328125 0.203125,0 0.203125,-0.1875 0.203125,-0.328125 z m 0,0"
               id="path33"
               style="stroke-width:1.6137" />
          </g>
        </g>
      </g>
      <g
         id="g41"
         transform="matrix(0.39843136,0,0,0.39843136,124.35749,64.822712)"
         ns8:version="1.12.0"
         ns8:texconverter="pdflatex"
         ns8:pdfconverter="inkscape"
         ns8:text="$+$"
         ns8:preamble="/home/ioverho/.config/inkscape/extensions/textext/default_packages.tex"
         ns8:scale="1.8225354482335525"
         ns8:alignment="middle center"
         ns8:inkscapeversion="1.4.3"
         ns8:jacobian_sqrt="0.64295"
         style="stroke-width:1.6137">
        <defs
           id="defs38">
          <g
             id="g38">
            <g
               id="g37">
              <path
                 d="m 4.078125,-2.296875 h 2.78125 C 7,-2.296875 7.1875,-2.296875 7.1875,-2.5 7.1875,-2.6875 7,-2.6875 6.859375,-2.6875 h -2.78125 v -2.796875 c 0,-0.140625 0,-0.328125 -0.203125,-0.328125 -0.203125,0 -0.203125,0.1875 -0.203125,0.328125 V -2.6875 h -2.78125 c -0.140625,0 -0.328125,0 -0.328125,0.1875 0,0.203125 0.1875,0.203125 0.328125,0.203125 h 2.78125 V 0.5 c 0,0.140625 0,0.328125 0.203125,0.328125 0.203125,0 0.203125,-0.1875 0.203125,-0.328125 z m 0,0"
                 id="path36" />
            </g>
          </g>
        </defs>
        <g
           fill="#000000"
           fill-opacity="1"
           id="g40"
           transform="translate(-149.275,-128.952)"
           style="stroke-width:1.6137">
          <g
             transform="translate(148.712,134.765)"
             id="g39"
             style="stroke-width:1.6137">
            <path
               d="m 4.078125,-2.296875 h 2.78125 C 7,-2.296875 7.1875,-2.296875 7.1875,-2.5 7.1875,-2.6875 7,-2.6875 6.859375,-2.6875 h -2.78125 v -2.796875 c 0,-0.140625 0,-0.328125 -0.203125,-0.328125 -0.203125,0 -0.203125,0.1875 -0.203125,0.328125 V -2.6875 h -2.78125 c -0.140625,0 -0.328125,0 -0.328125,0.1875 0,0.203125 0.1875,0.203125 0.328125,0.203125 h 2.78125 V 0.5 c 0,0.140625 0,0.328125 0.203125,0.328125 0.203125,0 0.203125,-0.1875 0.203125,-0.328125 z m 0,0"
               id="path38"
               style="stroke-width:1.6137" />
          </g>
        </g>
      </g>
      <path
         style="display:inline;fill:none;fill-rule:evenodd;stroke:#000000;stroke-width:0.79375;stroke-linecap:butt;stroke-linejoin:miter;stroke-dasharray:none;stroke-opacity:1"
         d="m 85.989583,63.523382 c 0,-10.606718 0,3.108856 0,-7.497862 l 35.065557,0.02339 c 3.96875,0.0026 4.62194,0.719336 4.62194,4.688086 v 2.624938"
         id="path9"
         sodipodi:nodetypes="ccssc" />
    </g>
  </g>
</svg>
