<?xml version="1.0" encoding="utf-8" standalone="no"?>
<!DOCTYPE svg PUBLIC "-//W3C//DTD SVG 1.1//EN"
  "http://www.w3.org/Graphics/SVG/1.1/DTD/svg11.dtd">
<svg xmlns:xlink="http://www.w3.org/1999/xlink" width="593.707322pt" height="219.35952pt" viewBox="0 0 593.707322 219.35952" xmlns="http://www.w3.org/2000/svg" version="1.1">
 <metadata>
  <rdf:RDF xmlns:dc="http://purl.org/dc/elements/1.1/" xmlns:cc="http://creativecommons.org/ns#" xmlns:rdf="http://www.w3.org/1999/02/22-rdf-syntax-ns#">
   <cc:Work>
    <dc:type rdf:resource="http://purl.org/dc/dcmitype/StillImage"/>
    <dc:date>2026-01-09T18:39:59.820509</dc:date>
    <dc:format>image/svg+xml</dc:format>
    <dc:creator>
     <cc:Agent>
      <dc:title>Matplotlib v3.10.8, https://matplotlib.org/</dc:title>
     </cc:Agent>
    </dc:creator>
   </cc:Work>
  </rdf:RDF>
 </metadata>
 <defs>
  <style type="text/css">*{stroke-linejoin: round; stroke-linecap: butt}</style>
 </defs>
 <g id="figure_1">
  <g id="patch_1">
   <path d="M 0 219.35952 
L 593.707322 219.35952 
L 593.707322 0 
L 0 0 
L 0 219.35952 
z
" style="fill: none"/>
  </g>
  <g id="axes_1">
   <g id="patch_2">
    <path d="M 13.3625 90.001395 
L 193.29528 90.001395 
L 193.29528 -0 
L 13.3625 -0 
L 13.3625 90.001395 
z
" style="fill: none"/>
   </g>
   <g id="matplotlib.axis_1">
    <g id="xtick_1">
     <g id="line2d_1">
      <defs>
       <path id="m4c603d21fe" d="M 0 0 
L 0 3.5 
" style="stroke: #181a20; stroke-width: 0.8"/>
      </defs>
      <g>
       <use xlink:href="#m4c603d21fe" x="13.3625" y="90.001395" style="fill: #181a20; stroke: #181a20; stroke-width: 0.8"/>
      </g>
     </g>
     <g id="text_1">
      <!-- 0.0 -->
      <g style="fill: #181a20" transform="translate(5.410938 104.599833) scale(0.1 -0.1)">
       <defs>
        <path id="DejaVuSans-30" d="M 2034 4250 
Q 1547 4250 1301 3770 
Q 1056 3291 1056 2328 
Q 1056 1369 1301 889 
Q 1547 409 2034 409 
Q 2525 409 2770 889 
Q 3016 1369 3016 2328 
Q 3016 3291 2770 3770 
Q 2525 4250 2034 4250 
z
M 2034 4750 
Q 2819 4750 3233 4129 
Q 3647 3509 3647 2328 
Q 3647 1150 3233 529 
Q 2819 -91 2034 -91 
Q 1250 -91 836 529 
Q 422 1150 422 2328 
Q 422 3509 836 4129 
Q 1250 4750 2034 4750 
z
" transform="scale(0.015625)"/>
        <path id="DejaVuSans-2e" d="M 684 794 
L 1344 794 
L 1344 0 
L 684 0 
L 684 794 
z
" transform="scale(0.015625)"/>
       </defs>
       <use xlink:href="#DejaVuSans-30"/>
       <use xlink:href="#DejaVuSans-2e" transform="translate(63.623047 0)"/>
       <use xlink:href="#DejaVuSans-30" transform="translate(95.410156 0)"/>
      </g>
     </g>
    </g>
    <g id="xtick_2">
     <g id="line2d_2">
      <g>
       <use xlink:href="#m4c603d21fe" x="49.349056" y="90.001395" style="fill: #181a20; stroke: #181a20; stroke-width: 0.8"/>
      </g>
     </g>
     <g id="text_2">
      <!-- 0.2 -->
      <g style="fill: #181a20" transform="translate(41.397493 104.599833) scale(0.1 -0.1)">
       <defs>
        <path id="DejaVuSans-32" d="M 1228 531 
L 3431 531 
L 3431 0 
L 469 0 
L 469 531 
Q 828 903 1448 1529 
Q 2069 2156 2228 2338 
Q 2531 2678 2651 2914 
Q 2772 3150 2772 3378 
Q 2772 3750 2511 3984 
Q 2250 4219 1831 4219 
Q 1534 4219 1204 4116 
Q 875 4013 500 3803 
L 500 4441 
Q 881 4594 1212 4672 
Q 1544 4750 1819 4750 
Q 2544 4750 2975 4387 
Q 3406 4025 3406 3419 
Q 3406 3131 3298 2873 
Q 3191 2616 2906 2266 
Q 2828 2175 2409 1742 
Q 1991 1309 1228 531 
z
" transform="scale(0.015625)"/>
       </defs>
       <use xlink:href="#DejaVuSans-30"/>
       <use xlink:href="#DejaVuSans-2e" transform="translate(63.623047 0)"/>
       <use xlink:href="#DejaVuSans-32" transform="translate(95.410156 0)"/>
      </g>
     </g>
    </g>
    <g id="xtick_3">
     <g id="line2d_3">
      <g>
       <use xlink:href="#m4c603d21fe" x="85.335612" y="90.001395" style="fill: #181a20; stroke: #181a20; stroke-width: 0.8"/>
      </g>
     </g>
     <g id="text_3">
      <!-- 0.4 -->
      <g style="fill: #181a20" transform="translate(77.384049 104.599833) scale(0.1 -0.1)">
       <defs>
        <path id="DejaVuSans-34" d="M 2419 4116 
L 825 1625 
L 2419 1625 
L 2419 4116 
z
M 2253 4666 
L 3047 4666 
L 3047 1625 
L 3713 1625 
L 3713 1100 
L 3047 1100 
L 3047 0 
L 2419 0 
L 2419 1100 
L 313 1100 
L 313 1709 
L 2253 4666 
z
" transform="scale(0.015625)"/>
       </defs>
       <use xlink:href="#DejaVuSans-30"/>
       <use xlink:href="#DejaVuSans-2e" transform="translate(63.623047 0)"/>
       <use xlink:href="#DejaVuSans-34" transform="translate(95.410156 0)"/>
      </g>
     </g>
    </g>
    <g id="xtick_4">
     <g id="line2d_4">
      <g>
       <use xlink:href="#m4c603d21fe" x="121.322168" y="90.001395" style="fill: #181a20; stroke: #181a20; stroke-width: 0.8"/>
      </g>
     </g>
     <g id="text_4">
      <!-- 0.6 -->
      <g style="fill: #181a20" transform="translate(113.370605 104.599833) scale(0.1 -0.1)">
       <defs>
        <path id="DejaVuSans-36" d="M 2113 2584 
Q 1688 2584 1439 2293 
Q 1191 2003 1191 1497 
Q 1191 994 1439 701 
Q 1688 409 2113 409 
Q 2538 409 2786 701 
Q 3034 994 3034 1497 
Q 3034 2003 2786 2293 
Q 2538 2584 2113 2584 
z
M 3366 4563 
L 3366 3988 
Q 3128 4100 2886 4159 
Q 2644 4219 2406 4219 
Q 1781 4219 1451 3797 
Q 1122 3375 1075 2522 
Q 1259 2794 1537 2939 
Q 1816 3084 2150 3084 
Q 2853 3084 3261 2657 
Q 3669 2231 3669 1497 
Q 3669 778 3244 343 
Q 2819 -91 2113 -91 
Q 1303 -91 875 529 
Q 447 1150 447 2328 
Q 447 3434 972 4092 
Q 1497 4750 2381 4750 
Q 2619 4750 2861 4703 
Q 3103 4656 3366 4563 
z
" transform="scale(0.015625)"/>
       </defs>
       <use xlink:href="#DejaVuSans-30"/>
       <use xlink:href="#DejaVuSans-2e" transform="translate(63.623047 0)"/>
       <use xlink:href="#DejaVuSans-36" transform="translate(95.410156 0)"/>
      </g>
     </g>
    </g>
    <g id="xtick_5">
     <g id="line2d_5">
      <g>
       <use xlink:href="#m4c603d21fe" x="157.308724" y="90.001395" style="fill: #181a20; stroke: #181a20; stroke-width: 0.8"/>
      </g>
     </g>
     <g id="text_5">
      <!-- 0.8 -->
      <g style="fill: #181a20" transform="translate(149.357161 104.599833) scale(0.1 -0.1)">
       <defs>
        <path id="DejaVuSans-38" d="M 2034 2216 
Q 1584 2216 1326 1975 
Q 1069 1734 1069 1313 
Q 1069 891 1326 650 
Q 1584 409 2034 409 
Q 2484 409 2743 651 
Q 3003 894 3003 1313 
Q 3003 1734 2745 1975 
Q 2488 2216 2034 2216 
z
M 1403 2484 
Q 997 2584 770 2862 
Q 544 3141 544 3541 
Q 544 4100 942 4425 
Q 1341 4750 2034 4750 
Q 2731 4750 3128 4425 
Q 3525 4100 3525 3541 
Q 3525 3141 3298 2862 
Q 3072 2584 2669 2484 
Q 3125 2378 3379 2068 
Q 3634 1759 3634 1313 
Q 3634 634 3220 271 
Q 2806 -91 2034 -91 
Q 1263 -91 848 271 
Q 434 634 434 1313 
Q 434 1759 690 2068 
Q 947 2378 1403 2484 
z
M 1172 3481 
Q 1172 3119 1398 2916 
Q 1625 2713 2034 2713 
Q 2441 2713 2670 2916 
Q 2900 3119 2900 3481 
Q 2900 3844 2670 4047 
Q 2441 4250 2034 4250 
Q 1625 4250 1398 4047 
Q 1172 3844 1172 3481 
z
" transform="scale(0.015625)"/>
       </defs>
       <use xlink:href="#DejaVuSans-30"/>
       <use xlink:href="#DejaVuSans-2e" transform="translate(63.623047 0)"/>
       <use xlink:href="#DejaVuSans-38" transform="translate(95.410156 0)"/>
      </g>
     </g>
    </g>
    <g id="xtick_6">
     <g id="line2d_6">
      <g>
       <use xlink:href="#m4c603d21fe" x="193.29528" y="90.001395" style="fill: #181a20; stroke: #181a20; stroke-width: 0.8"/>
      </g>
     </g>
     <g id="text_6">
      <!-- 1.0 -->
      <g style="fill: #181a20" transform="translate(185.343717 104.599833) scale(0.1 -0.1)">
       <defs>
        <path id="DejaVuSans-31" d="M 794 531 
L 1825 531 
L 1825 4091 
L 703 3866 
L 703 4441 
L 1819 4666 
L 2450 4666 
L 2450 531 
L 3481 531 
L 3481 0 
L 794 0 
L 794 531 
z
" transform="scale(0.015625)"/>
       </defs>
       <use xlink:href="#DejaVuSans-31"/>
       <use xlink:href="#DejaVuSans-2e" transform="translate(63.623047 0)"/>
       <use xlink:href="#DejaVuSans-30" transform="translate(95.410156 0)"/>
      </g>
     </g>
    </g>
   </g>
   <g id="matplotlib.axis_2">
    <g id="ytick_1">
     <g id="line2d_7">
      <defs>
       <path id="ma72dfb4ec3" d="M 0 0 
L -3.5 0 
" style="stroke: #181a20; stroke-width: 0.8"/>
      </defs>
      <g>
       <use xlink:href="#ma72dfb4ec3" x="13.3625" y="90.001395" style="fill: #181a20; stroke: #181a20; stroke-width: 0.8"/>
      </g>
     </g>
     <g id="text_7">
      <!-- 0 -->
      <g style="fill: #181a20" transform="translate(0 93.800614) scale(0.1 -0.1)">
       <use xlink:href="#DejaVuSans-30"/>
      </g>
     </g>
    </g>
    <g id="ytick_2">
     <g id="line2d_8">
      <g>
       <use xlink:href="#ma72dfb4ec3" x="13.3625" y="64.286711" style="fill: #181a20; stroke: #181a20; stroke-width: 0.8"/>
      </g>
     </g>
     <g id="text_8">
      <!-- 1 -->
      <g style="fill: #181a20" transform="translate(0 68.085929) scale(0.1 -0.1)">
       <use xlink:href="#DejaVuSans-31"/>
      </g>
     </g>
    </g>
    <g id="ytick_3">
     <g id="line2d_9">
      <g>
       <use xlink:href="#ma72dfb4ec3" x="13.3625" y="38.572026" style="fill: #181a20; stroke: #181a20; stroke-width: 0.8"/>
      </g>
     </g>
     <g id="text_9">
      <!-- 2 -->
      <g style="fill: #181a20" transform="translate(0 42.371245) scale(0.1 -0.1)">
       <use xlink:href="#DejaVuSans-32"/>
      </g>
     </g>
    </g>
    <g id="ytick_4">
     <g id="line2d_10">
      <g>
       <use xlink:href="#ma72dfb4ec3" x="13.3625" y="12.857342" style="fill: #181a20; stroke: #181a20; stroke-width: 0.8"/>
      </g>
     </g>
     <g id="text_10">
      <!-- 3 -->
      <g style="fill: #181a20" transform="translate(0 16.656561) scale(0.1 -0.1)">
       <defs>
        <path id="DejaVuSans-33" d="M 2597 2516 
Q 3050 2419 3304 2112 
Q 3559 1806 3559 1356 
Q 3559 666 3084 287 
Q 2609 -91 1734 -91 
Q 1441 -91 1130 -33 
Q 819 25 488 141 
L 488 750 
Q 750 597 1062 519 
Q 1375 441 1716 441 
Q 2309 441 2620 675 
Q 2931 909 2931 1356 
Q 2931 1769 2642 2001 
Q 2353 2234 1838 2234 
L 1294 2234 
L 1294 2753 
L 1863 2753 
Q 2328 2753 2575 2939 
Q 2822 3125 2822 3475 
Q 2822 3834 2567 4026 
Q 2313 4219 1838 4219 
Q 1578 4219 1281 4162 
Q 984 4106 628 3988 
L 628 4550 
Q 988 4650 1302 4700 
Q 1616 4750 1894 4750 
Q 2613 4750 3031 4423 
Q 3450 4097 3450 3541 
Q 3450 3153 3228 2886 
Q 3006 2619 2597 2516 
z
" transform="scale(0.015625)"/>
       </defs>
       <use xlink:href="#DejaVuSans-33"/>
      </g>
     </g>
    </g>
   </g>
   <g id="line2d_11">
    <path d="M 13.3625 64.286711 
L 193.29528 64.286711 
L 193.29528 64.286711 
" clip-path="url(#pe4e253b0e8)" style="fill: none; stroke: #181a20; stroke-linecap: square"/>
   </g>
   <g id="line2d_12">
    <path d="M 13.3625 90.001395 
L 18.946 85.362244 
L 24.349386 81.155656 
L 29.752773 77.227342 
L 35.15616 73.577303 
L 40.379434 70.313449 
L 45.602708 67.309626 
L 50.825982 64.565836 
L 55.869143 62.163396 
L 60.912304 60.003365 
L 65.955465 58.085742 
L 70.998626 56.410527 
L 75.861674 55.024718 
L 80.724722 53.864312 
L 85.58777 52.929309 
L 90.450818 52.219708 
L 95.313866 51.73551 
L 100.176914 51.476714 
L 105.039962 51.443321 
L 109.90301 51.635331 
L 114.766059 52.052743 
L 119.629107 52.695558 
L 124.492155 53.563775 
L 129.355203 54.657396 
L 134.218251 55.976418 
L 139.081299 57.520844 
L 144.12446 59.36055 
L 149.167621 61.442664 
L 154.210782 63.767187 
L 159.253943 66.334118 
L 164.477217 69.248274 
L 169.700491 72.422463 
L 174.923765 75.856684 
L 180.327151 79.682963 
L 185.730538 83.787517 
L 191.133925 88.170346 
L 193.29528 90.001395 
L 193.29528 90.001395 
" clip-path="url(#pe4e253b0e8)" style="fill: none; stroke-dasharray: 3.7,1.6; stroke-dashoffset: 0; stroke: #181a20"/>
   </g>
   <g id="line2d_13">
    <path d="M 13.3625 90.001395 
L 15.523855 89.892743 
L 17.865322 89.542156 
L 20.20679 88.968504 
L 22.72837 88.123172 
L 25.430064 86.981291 
L 28.31187 85.524389 
L 31.553902 83.62998 
L 35.15616 81.259607 
L 39.298757 78.260594 
L 44.52203 74.185535 
L 53.347562 66.95577 
L 61.632755 60.274822 
L 67.036142 56.201989 
L 71.538964 53.074828 
L 75.681561 50.462998 
L 79.463932 48.332999 
L 83.066189 46.553847 
L 86.488334 45.105984 
L 89.730366 43.964301 
L 92.972399 43.055737 
L 96.034318 42.418223 
L 99.096237 41.999566 
L 102.158156 41.80269 
L 105.220075 41.828963 
L 108.281994 42.078204 
L 111.343914 42.548677 
L 114.405833 43.237095 
L 117.647865 44.198154 
L 120.889897 45.390466 
L 124.312042 46.889266 
L 127.9143 48.718706 
L 131.69667 50.897191 
L 135.659154 53.43518 
L 140.161976 56.594982 
L 145.205137 60.415468 
L 151.689202 65.624022 
L 166.278346 77.439985 
L 170.961281 80.883387 
L 174.743652 83.404631 
L 178.165797 85.425867 
L 181.227716 86.981291 
L 184.109522 88.190899 
L 186.631103 89.020112 
L 189.152683 89.611097 
L 191.494151 89.925636 
L 193.29528 90.001395 
L 193.29528 90.001395 
" clip-path="url(#pe4e253b0e8)" style="fill: none; stroke-dasharray: 1,1.65; stroke-dashoffset: 0; stroke: #181a20"/>
   </g>
   <g id="line2d_14">
    <path d="M 13.3625 90.001395 
L 19.126113 89.894084 
L 22.368145 89.614472 
L 25.249951 89.15574 
L 27.951644 88.512379 
L 30.653338 87.64204 
L 33.355031 86.533035 
L 36.056724 85.181133 
L 38.758418 83.588775 
L 41.640224 81.634746 
L 44.702143 79.28803 
L 48.124288 76.368335 
L 51.906659 72.831541 
L 56.409481 68.296845 
L 63.073658 61.223539 
L 71.358851 52.48251 
L 75.861674 48.059552 
L 79.644044 44.654471 
L 82.886077 42.021462 
L 85.947996 39.816823 
L 88.829802 38.020668 
L 91.531495 36.602676 
L 94.053076 35.525404 
L 96.574656 34.696307 
L 98.916124 34.155534 
L 101.257592 33.839925 
L 103.599059 33.752045 
L 105.940527 33.892609 
L 108.281994 34.260473 
L 110.623462 34.852649 
L 112.96493 35.664318 
L 115.48651 36.776266 
L 118.008091 38.124551 
L 120.709784 39.816823 
L 123.59159 41.88385 
L 126.653509 44.347965 
L 130.075654 47.386378 
L 134.038138 51.210625 
L 139.081299 56.413556 
L 154.751121 72.831541 
L 158.713604 76.529131 
L 162.135749 79.433348 
L 165.377781 81.892928 
L 168.259588 83.814738 
L 171.141394 85.470918 
L 173.843087 86.774234 
L 176.544781 87.83494 
L 179.246474 88.658695 
L 181.948167 89.258777 
L 184.829974 89.676965 
L 188.072006 89.920778 
L 192.394715 90.00095 
L 193.29528 90.001395 
L 193.29528 90.001395 
" clip-path="url(#pe4e253b0e8)" style="fill: none; stroke-dasharray: 6.4,1.6,1,1.6; stroke-dashoffset: 0; stroke: #181a20"/>
   </g>
   <g id="line2d_15">
    <path d="M 13.3625 90.001395 
L 23.088596 89.890656 
L 27.05108 89.605975 
L 30.293112 89.146124 
L 33.174918 88.507997 
L 35.876612 87.674999 
L 38.398192 86.66674 
L 40.919773 85.417391 
L 43.441353 83.915044 
L 45.962934 82.154003 
L 48.664627 79.981012 
L 51.36632 77.520879 
L 54.248127 74.599631 
L 57.490159 70.984152 
L 61.092417 66.625644 
L 65.775352 60.577319 
L 78.563367 43.828208 
L 82.165625 39.605873 
L 85.227544 36.360696 
L 87.929238 33.8161 
L 90.450818 31.748522 
L 92.792286 30.120402 
L 94.95364 28.884509 
L 96.934882 27.988088 
L 98.916124 27.32595 
L 100.897366 26.903862 
L 102.878608 26.725505 
L 104.679737 26.776213 
L 106.660978 27.065678 
L 108.64222 27.597462 
L 110.623462 28.366931 
L 112.604704 29.367385 
L 114.766059 30.711951 
L 117.107526 32.450876 
L 119.629107 34.628259 
L 122.3308 37.277896 
L 125.212606 40.41855 
L 128.634751 44.49258 
L 132.957461 50.020788 
L 147.906831 69.495326 
L 151.509089 73.628283 
L 154.571008 76.818344 
L 157.452814 79.511525 
L 160.154507 81.742926 
L 162.856201 83.679358 
L 165.377781 85.218461 
L 167.899362 86.503366 
L 170.420942 87.545111 
L 173.122636 88.410782 
L 175.824329 89.044397 
L 178.886248 89.524284 
L 182.308393 89.826359 
L 186.811216 89.977806 
L 193.29528 90.001395 
L 193.29528 90.001395 
" clip-path="url(#pe4e253b0e8)" style="fill: none; stroke-dasharray: 10,3; stroke-dashoffset: 5; stroke: #181a20"/>
   </g>
   <g id="patch_3">
    <path d="M 13.3625 90.001395 
L 13.3625 -0 
" style="fill: none; stroke: #181a20; stroke-width: 0.8; stroke-linejoin: miter; stroke-linecap: square"/>
   </g>
   <g id="patch_4">
    <path d="M 13.3625 90.001395 
L 193.29528 90.001395 
" style="fill: none; stroke: #181a20; stroke-width: 0.8; stroke-linejoin: miter; stroke-linecap: square"/>
   </g>
  </g>
  <g id="axes_2">
   <g id="legend_1">
    <g id="line2d_16">
     <path d="M 215.347322 17.730697 
L 224.347322 17.730697 
L 233.347322 17.730697 
" style="fill: none; stroke: #181a20; stroke-linecap: square"/>
    </g>
    <g id="text_11">
     <!-- $\alpha$=$\beta$=1 -->
     <g style="fill: #181a20" transform="translate(240.547322 20.880697) scale(0.09 -0.09)">
      <defs>
       <path id="DejaVuSans-Oblique-3b1" d="M 2619 1628 
L 2622 2350 
Q 2625 3088 2069 3091 
Q 1653 3094 1394 2747 
Q 1069 2319 959 1747 
Q 825 1059 994 731 
Q 1169 397 1547 397 
Q 1966 397 2319 1063 
L 2619 1628 
z
M 2166 3578 
Q 3141 3594 3128 2584 
Q 3128 2584 3616 3500 
L 4128 3500 
L 3119 1603 
L 3109 919 
Q 3109 766 3194 638 
Q 3291 488 3391 488 
L 3669 488 
L 3575 0 
L 3228 0 
Q 2934 0 2722 263 
Q 2622 394 2619 669 
Q 2416 334 2066 50 
Q 1900 -81 1453 -78 
Q 722 -72 456 397 
Q 184 884 353 1747 
Q 534 2675 1009 3097 
Q 1544 3569 2166 3578 
z
" transform="scale(0.015625)"/>
       <path id="DejaVuSans-3d" d="M 678 2906 
L 4684 2906 
L 4684 2381 
L 678 2381 
L 678 2906 
z
M 678 1631 
L 4684 1631 
L 4684 1100 
L 678 1100 
L 678 1631 
z
" transform="scale(0.015625)"/>
       <path id="DejaVuSans-Oblique-3b2" d="M 872 216 
L 572 -1331 
L -6 -1331 
L 928 3478 
Q 1206 4903 2538 4903 
Q 3888 4903 3659 3700 
Q 3503 2844 2894 2531 
Q 3713 2250 3553 1416 
Q 3272 -69 1759 -66 
Q 1097 -63 872 216 
z
M 1019 966 
Q 1259 422 1875 425 
Q 2775 425 2966 1406 
Q 3138 2288 1675 2219 
L 1778 2750 
Q 2909 2731 3106 3750 
Q 3241 4438 2509 4434 
Q 1691 4434 1503 3459 
L 1019 966 
z
" transform="scale(0.015625)"/>
      </defs>
      <use xlink:href="#DejaVuSans-Oblique-3b1" transform="translate(0 0.390625)"/>
      <use xlink:href="#DejaVuSans-3d" transform="translate(65.917969 0.390625)"/>
      <use xlink:href="#DejaVuSans-Oblique-3b2" transform="translate(149.707031 0.390625)"/>
      <use xlink:href="#DejaVuSans-3d" transform="translate(213.525391 0.390625)"/>
      <use xlink:href="#DejaVuSans-31" transform="translate(297.314453 0.390625)"/>
     </g>
    </g>
    <g id="line2d_17">
     <path d="M 215.347322 31.050697 
L 224.347322 31.050697 
L 233.347322 31.050697 
" style="fill: none; stroke-dasharray: 3.7,1.6; stroke-dashoffset: 0; stroke: #181a20"/>
    </g>
    <g id="text_12">
     <!-- $\alpha$=$\beta$=2 -->
     <g style="fill: #181a20" transform="translate(240.547322 34.200697) scale(0.09 -0.09)">
      <use xlink:href="#DejaVuSans-Oblique-3b1" transform="translate(0 0.390625)"/>
      <use xlink:href="#DejaVuSans-3d" transform="translate(65.917969 0.390625)"/>
      <use xlink:href="#DejaVuSans-Oblique-3b2" transform="translate(149.707031 0.390625)"/>
      <use xlink:href="#DejaVuSans-3d" transform="translate(213.525391 0.390625)"/>
      <use xlink:href="#DejaVuSans-32" transform="translate(297.314453 0.390625)"/>
     </g>
    </g>
    <g id="line2d_18">
     <path d="M 215.347322 44.370697 
L 224.347322 44.370697 
L 233.347322 44.370697 
" style="fill: none; stroke-dasharray: 1,1.65; stroke-dashoffset: 0; stroke: #181a20"/>
    </g>
    <g id="text_13">
     <!-- $\alpha$=$\beta$=3 -->
     <g style="fill: #181a20" transform="translate(240.547322 47.520697) scale(0.09 -0.09)">
      <use xlink:href="#DejaVuSans-Oblique-3b1" transform="translate(0 0.390625)"/>
      <use xlink:href="#DejaVuSans-3d" transform="translate(65.917969 0.390625)"/>
      <use xlink:href="#DejaVuSans-Oblique-3b2" transform="translate(149.707031 0.390625)"/>
      <use xlink:href="#DejaVuSans-3d" transform="translate(213.525391 0.390625)"/>
      <use xlink:href="#DejaVuSans-33" transform="translate(297.314453 0.390625)"/>
     </g>
    </g>
    <g id="line2d_19">
     <path d="M 215.347322 57.690698 
L 224.347322 57.690698 
L 233.347322 57.690698 
" style="fill: none; stroke-dasharray: 6.4,1.6,1,1.6; stroke-dashoffset: 0; stroke: #181a20"/>
    </g>
    <g id="text_14">
     <!-- $\alpha$=$\beta$=4 -->
     <g style="fill: #181a20" transform="translate(240.547322 60.840698) scale(0.09 -0.09)">
      <use xlink:href="#DejaVuSans-Oblique-3b1" transform="translate(0 0.390625)"/>
      <use xlink:href="#DejaVuSans-3d" transform="translate(65.917969 0.390625)"/>
      <use xlink:href="#DejaVuSans-Oblique-3b2" transform="translate(149.707031 0.390625)"/>
      <use xlink:href="#DejaVuSans-3d" transform="translate(213.525391 0.390625)"/>
      <use xlink:href="#DejaVuSans-34" transform="translate(297.314453 0.390625)"/>
     </g>
    </g>
    <g id="line2d_20">
     <path d="M 215.347322 71.010697 
L 224.347322 71.010697 
L 233.347322 71.010697 
" style="fill: none; stroke-dasharray: 10,3; stroke-dashoffset: 5; stroke: #181a20"/>
    </g>
    <g id="text_15">
     <!-- $\alpha$=$\beta$=5 -->
     <g style="fill: #181a20" transform="translate(240.547322 74.160697) scale(0.09 -0.09)">
      <defs>
       <path id="DejaVuSans-35" d="M 691 4666 
L 3169 4666 
L 3169 4134 
L 1269 4134 
L 1269 2991 
Q 1406 3038 1543 3061 
Q 1681 3084 1819 3084 
Q 2600 3084 3056 2656 
Q 3513 2228 3513 1497 
Q 3513 744 3044 326 
Q 2575 -91 1722 -91 
Q 1428 -91 1123 -41 
Q 819 9 494 109 
L 494 744 
Q 775 591 1075 516 
Q 1375 441 1709 441 
Q 2250 441 2565 725 
Q 2881 1009 2881 1497 
Q 2881 1984 2565 2268 
Q 2250 2553 1709 2553 
Q 1456 2553 1204 2497 
Q 953 2441 691 2322 
L 691 4666 
z
" transform="scale(0.015625)"/>
      </defs>
      <use xlink:href="#DejaVuSans-Oblique-3b1" transform="translate(0 0.390625)"/>
      <use xlink:href="#DejaVuSans-3d" transform="translate(65.917969 0.390625)"/>
      <use xlink:href="#DejaVuSans-Oblique-3b2" transform="translate(149.707031 0.390625)"/>
      <use xlink:href="#DejaVuSans-3d" transform="translate(213.525391 0.390625)"/>
      <use xlink:href="#DejaVuSans-35" transform="translate(297.314453 0.390625)"/>
     </g>
    </g>
   </g>
  </g>
  <g id="axes_3">
   <g id="patch_5">
    <path d="M 313.2425 90.001395 
L 493.17528 90.001395 
L 493.17528 -0 
L 313.2425 -0 
L 313.2425 90.001395 
z
" style="fill: none"/>
   </g>
   <g id="matplotlib.axis_3">
    <g id="xtick_7">
     <g id="line2d_21">
      <g>
       <use xlink:href="#m4c603d21fe" x="313.2425" y="90.001395" style="fill: #181a20; stroke: #181a20; stroke-width: 0.8"/>
      </g>
     </g>
     <g id="text_16">
      <!-- 0.0 -->
      <g style="fill: #181a20" transform="translate(305.290937 104.599833) scale(0.1 -0.1)">
       <use xlink:href="#DejaVuSans-30"/>
       <use xlink:href="#DejaVuSans-2e" transform="translate(63.623047 0)"/>
       <use xlink:href="#DejaVuSans-30" transform="translate(95.410156 0)"/>
      </g>
     </g>
    </g>
    <g id="xtick_8">
     <g id="line2d_22">
      <g>
       <use xlink:href="#m4c603d21fe" x="349.229056" y="90.001395" style="fill: #181a20; stroke: #181a20; stroke-width: 0.8"/>
      </g>
     </g>
     <g id="text_17">
      <!-- 0.2 -->
      <g style="fill: #181a20" transform="translate(341.277493 104.599833) scale(0.1 -0.1)">
       <use xlink:href="#DejaVuSans-30"/>
       <use xlink:href="#DejaVuSans-2e" transform="translate(63.623047 0)"/>
       <use xlink:href="#DejaVuSans-32" transform="translate(95.410156 0)"/>
      </g>
     </g>
    </g>
    <g id="xtick_9">
     <g id="line2d_23">
      <g>
       <use xlink:href="#m4c603d21fe" x="385.215612" y="90.001395" style="fill: #181a20; stroke: #181a20; stroke-width: 0.8"/>
      </g>
     </g>
     <g id="text_18">
      <!-- 0.4 -->
      <g style="fill: #181a20" transform="translate(377.264049 104.599833) scale(0.1 -0.1)">
       <use xlink:href="#DejaVuSans-30"/>
       <use xlink:href="#DejaVuSans-2e" transform="translate(63.623047 0)"/>
       <use xlink:href="#DejaVuSans-34" transform="translate(95.410156 0)"/>
      </g>
     </g>
    </g>
    <g id="xtick_10">
     <g id="line2d_24">
      <g>
       <use xlink:href="#m4c603d21fe" x="421.202168" y="90.001395" style="fill: #181a20; stroke: #181a20; stroke-width: 0.8"/>
      </g>
     </g>
     <g id="text_19">
      <!-- 0.6 -->
      <g style="fill: #181a20" transform="translate(413.250605 104.599833) scale(0.1 -0.1)">
       <use xlink:href="#DejaVuSans-30"/>
       <use xlink:href="#DejaVuSans-2e" transform="translate(63.623047 0)"/>
       <use xlink:href="#DejaVuSans-36" transform="translate(95.410156 0)"/>
      </g>
     </g>
    </g>
    <g id="xtick_11">
     <g id="line2d_25">
      <g>
       <use xlink:href="#m4c603d21fe" x="457.188724" y="90.001395" style="fill: #181a20; stroke: #181a20; stroke-width: 0.8"/>
      </g>
     </g>
     <g id="text_20">
      <!-- 0.8 -->
      <g style="fill: #181a20" transform="translate(449.237161 104.599833) scale(0.1 -0.1)">
       <use xlink:href="#DejaVuSans-30"/>
       <use xlink:href="#DejaVuSans-2e" transform="translate(63.623047 0)"/>
       <use xlink:href="#DejaVuSans-38" transform="translate(95.410156 0)"/>
      </g>
     </g>
    </g>
    <g id="xtick_12">
     <g id="line2d_26">
      <g>
       <use xlink:href="#m4c603d21fe" x="493.17528" y="90.001395" style="fill: #181a20; stroke: #181a20; stroke-width: 0.8"/>
      </g>
     </g>
     <g id="text_21">
      <!-- 1.0 -->
      <g style="fill: #181a20" transform="translate(485.223717 104.599833) scale(0.1 -0.1)">
       <use xlink:href="#DejaVuSans-31"/>
       <use xlink:href="#DejaVuSans-2e" transform="translate(63.623047 0)"/>
       <use xlink:href="#DejaVuSans-30" transform="translate(95.410156 0)"/>
      </g>
     </g>
    </g>
   </g>
   <g id="matplotlib.axis_4">
    <g id="ytick_5">
     <g id="line2d_27">
      <g>
       <use xlink:href="#ma72dfb4ec3" x="313.2425" y="90.001395" style="fill: #181a20; stroke: #181a20; stroke-width: 0.8"/>
      </g>
     </g>
     <g id="text_22">
      <!-- 0 -->
      <g style="fill: #181a20" transform="translate(299.88 93.800614) scale(0.1 -0.1)">
       <use xlink:href="#DejaVuSans-30"/>
      </g>
     </g>
    </g>
    <g id="ytick_6">
     <g id="line2d_28">
      <g>
       <use xlink:href="#ma72dfb4ec3" x="313.2425" y="64.286711" style="fill: #181a20; stroke: #181a20; stroke-width: 0.8"/>
      </g>
     </g>
     <g id="text_23">
      <!-- 1 -->
      <g style="fill: #181a20" transform="translate(299.88 68.085929) scale(0.1 -0.1)">
       <use xlink:href="#DejaVuSans-31"/>
      </g>
     </g>
    </g>
    <g id="ytick_7">
     <g id="line2d_29">
      <g>
       <use xlink:href="#ma72dfb4ec3" x="313.2425" y="38.572026" style="fill: #181a20; stroke: #181a20; stroke-width: 0.8"/>
      </g>
     </g>
     <g id="text_24">
      <!-- 2 -->
      <g style="fill: #181a20" transform="translate(299.88 42.371245) scale(0.1 -0.1)">
       <use xlink:href="#DejaVuSans-32"/>
      </g>
     </g>
    </g>
    <g id="ytick_8">
     <g id="line2d_30">
      <g>
       <use xlink:href="#ma72dfb4ec3" x="313.2425" y="12.857342" style="fill: #181a20; stroke: #181a20; stroke-width: 0.8"/>
      </g>
     </g>
     <g id="text_25">
      <!-- 3 -->
      <g style="fill: #181a20" transform="translate(299.88 16.656561) scale(0.1 -0.1)">
       <use xlink:href="#DejaVuSans-33"/>
      </g>
     </g>
    </g>
   </g>
   <g id="line2d_31">
    <path d="M 314.866624 -1 
L 315.403855 19.457136 
L 315.944193 32.134189 
L 316.664645 43.052159 
L 317.385097 50.323343 
L 318.105548 55.528067 
L 319.006113 60.278478 
L 319.906677 63.797182 
L 320.807241 66.512362 
L 321.887919 69.053969 
L 322.968596 71.053227 
L 324.229386 72.907902 
L 325.67029 74.583986 
L 327.111193 75.924374 
L 328.732209 77.144446 
L 330.713451 78.337871 
L 332.874805 79.372812 
L 335.396386 80.331051 
L 338.458305 81.241455 
L 342.060563 82.066951 
L 346.383272 82.819611 
L 351.606546 83.497279 
L 358.09061 84.106505 
L 366.19569 84.634446 
L 376.282012 85.059099 
L 388.709802 85.350544 
L 402.938721 85.459366 
L 417.527865 85.353298 
L 430.676106 85.04129 
L 441.302767 84.575463 
L 449.768073 83.988376 
L 456.43225 83.308521 
L 461.655524 82.561933 
L 465.978233 81.722455 
L 469.400378 80.841795 
L 472.282184 79.880162 
L 474.623652 78.884602 
L 476.785006 77.72147 
L 478.586135 76.49886 
L 480.207151 75.120151 
L 481.648055 73.583487 
L 482.908845 71.901458 
L 483.989522 70.109802 
L 485.0702 67.864055 
L 485.970764 65.504023 
L 486.871328 62.504753 
L 487.771893 58.559428 
L 488.492345 54.370013 
L 489.212796 48.741823 
L 489.753135 43.052159 
L 490.293473 35.349643 
L 490.833812 24.300393 
L 491.374151 7.02901 
L 491.551156 -1 
L 491.551156 -1 
" clip-path="url(#p2d251cb892)" style="fill: none; stroke: #181a20; stroke-linecap: square"/>
   </g>
   <g id="line2d_32">
    <path d="M 315.556164 -1 
L 315.944193 8.274471 
L 316.664645 20.540587 
L 317.385097 29.061564 
L 318.105548 35.374743 
L 319.006113 41.324588 
L 319.906677 45.868558 
L 320.987354 50.101003 
L 322.068032 53.426607 
L 323.328822 56.517513 
L 324.589612 59.006218 
L 326.030515 61.322582 
L 327.471419 63.226045 
L 329.092435 65.002267 
L 330.893563 66.636706 
L 332.874805 68.126093 
L 335.03616 69.474197 
L 337.557741 70.773473 
L 340.439547 71.989283 
L 343.681579 73.102814 
L 347.46395 74.151218 
L 351.786659 75.106851 
L 356.82982 75.983341 
L 362.593433 76.75604 
L 369.437722 77.442609 
L 377.36269 78.007426 
L 386.368334 78.42378 
L 396.454656 78.664498 
L 407.081317 78.694596 
L 417.527865 78.504618 
L 427.253961 78.107989 
L 435.719267 77.547194 
L 443.103896 76.838859 
L 449.227734 76.038037 
L 454.451008 75.142126 
L 458.95383 74.151218 
L 462.736201 73.102814 
L 465.978233 71.989283 
L 468.860039 70.773473 
L 471.38162 69.474197 
L 473.542974 68.126093 
L 475.524216 66.636706 
L 477.325345 65.002267 
L 478.946361 63.226045 
L 480.387264 61.322582 
L 481.648055 59.323081 
L 482.908845 56.905238 
L 483.989522 54.384124 
L 485.0702 51.294086 
L 485.970764 48.121018 
L 486.871328 44.184669 
L 487.771893 39.148688 
L 488.492345 33.95273 
L 489.212796 27.180585 
L 489.933248 17.912803 
L 490.473586 8.274471 
L 490.861616 -1 
L 490.861616 -1 
" clip-path="url(#p2d251cb892)" style="fill: none; stroke-dasharray: 3.7,1.6; stroke-dashoffset: 0; stroke: #181a20"/>
   </g>
   <g id="line2d_33">
    <path d="M 314.712279 -1 
L 315.223742 11.56421 
L 315.76408 20.368464 
L 316.484532 28.465849 
L 317.204984 34.226573 
L 318.105548 39.525759 
L 319.006113 43.51685 
L 320.08679 47.211293 
L 321.167467 50.110959 
L 322.428258 52.81299 
L 323.689048 54.999786 
L 325.129951 57.049225 
L 326.750967 58.939339 
L 328.552096 60.664493 
L 330.533338 62.228745 
L 332.694692 63.641354 
L 335.03616 64.913925 
L 337.737853 66.133069 
L 340.799773 67.273149 
L 344.40203 68.370039 
L 348.544627 69.389828 
L 353.407675 70.344563 
L 358.991175 71.20382 
L 365.475239 71.968116 
L 372.859867 72.611595 
L 381.325173 73.124012 
L 390.871157 73.474776 
L 401.137592 73.626578 
L 411.584139 73.559518 
L 421.670461 73.274963 
L 430.856219 72.798475 
L 438.961299 72.161765 
L 445.985702 71.39285 
L 451.929427 70.528357 
L 457.152701 69.545974 
L 461.475411 68.516138 
L 465.257781 67.39352 
L 468.499813 66.206549 
L 471.38162 64.913925 
L 473.9032 63.533311 
L 476.064555 62.098402 
L 478.045797 60.506516 
L 479.666813 58.939339 
L 481.287829 57.049225 
L 482.728732 54.999786 
L 483.989522 52.81299 
L 485.0702 50.536008 
L 486.150877 47.741453 
L 487.051441 44.858054 
L 487.952006 41.247205 
L 488.85257 36.546327 
L 489.573022 31.564051 
L 490.293473 24.799523 
L 490.833812 17.77654 
L 491.374151 7.777383 
L 491.705501 -1 
L 491.705501 -1 
" clip-path="url(#p2d251cb892)" style="fill: none; stroke-dasharray: 1,1.65; stroke-dashoffset: 0; stroke: #181a20"/>
   </g>
   <g id="line2d_34">
    <path d="M 313.570487 -1 
L 313.782839 12.595743 
L 314.143064 23.553698 
L 314.683403 32.239989 
L 315.223742 37.455117 
L 315.944193 42.065489 
L 316.664645 45.292602 
L 317.565209 48.254701 
L 318.465774 50.497863 
L 319.546451 52.595218 
L 320.807241 54.508741 
L 322.068032 56.038012 
L 323.508935 57.462026 
L 325.129951 58.772316 
L 327.111193 60.077346 
L 329.272547 61.236855 
L 331.794128 62.341962 
L 334.856047 63.428687 
L 338.458305 64.453773 
L 342.600901 65.393828 
L 347.46395 66.267107 
L 353.227562 67.074003 
L 360.071852 67.804025 
L 368.176932 68.439394 
L 377.542803 68.947819 
L 388.349576 69.306218 
L 400.056914 69.469664 
L 412.124478 69.41637 
L 423.651703 69.148204 
L 434.098251 68.690193 
L 443.284008 68.069217 
L 451.028863 67.327629 
L 457.512927 66.488964 
L 462.916314 65.571941 
L 467.419136 64.589099 
L 471.201507 63.542054 
L 474.443539 62.412778 
L 477.145232 61.236855 
L 479.4867 59.969533 
L 481.467942 58.639032 
L 483.088958 57.299198 
L 484.529861 55.838055 
L 485.790651 54.262424 
L 486.871328 52.595218 
L 487.952006 50.497863 
L 488.85257 48.254701 
L 489.573022 45.961828 
L 490.293473 42.970331 
L 491.013925 38.793452 
L 491.554264 34.228455 
L 492.094602 27.071545 
L 492.454828 18.974647 
L 492.815054 2.609873 
L 492.847293 -1 
L 492.847293 -1 
" clip-path="url(#p2d251cb892)" style="fill: none; stroke-dasharray: 6.4,1.6,1,1.6; stroke-dashoffset: 0; stroke: #181a20"/>
   </g>
   <g id="line2d_35">
    <path d="M 313.422613 48.155175 
L 313.782839 52.501398 
L 314.143064 54.361727 
L 314.683403 55.987769 
L 315.403855 57.326105 
L 316.304419 58.428584 
L 317.385097 59.34991 
L 318.645887 60.132113 
L 320.266903 60.878422 
L 322.428258 61.613614 
L 325.129951 62.29202 
L 328.732209 62.957305 
L 333.415144 63.586121 
L 339.538982 64.176468 
L 347.644062 64.724436 
L 358.270723 65.208508 
L 371.959303 65.598237 
L 388.709802 65.846504 
L 407.621656 65.904183 
L 426.353397 65.744459 
L 442.563557 65.392834 
L 455.351572 64.903363 
L 464.897556 64.33008 
L 472.102071 63.686366 
L 477.325345 63.013489 
L 481.287829 62.29202 
L 484.169635 61.560342 
L 486.33099 60.805715 
L 487.952006 60.033771 
L 489.212796 59.216508 
L 490.293473 58.239827 
L 491.013925 57.326105 
L 491.554264 56.382648 
L 492.094602 55.002104 
L 492.454828 53.561176 
L 492.815054 50.953577 
L 492.995167 48.155175 
L 492.995167 48.155175 
" clip-path="url(#p2d251cb892)" style="fill: none; stroke-dasharray: 10,3; stroke-dashoffset: 5; stroke: #181a20"/>
   </g>
   <g id="patch_6">
    <path d="M 313.2425 90.001395 
L 313.2425 -0 
" style="fill: none; stroke: #181a20; stroke-width: 0.8; stroke-linejoin: miter; stroke-linecap: square"/>
   </g>
   <g id="patch_7">
    <path d="M 313.2425 90.001395 
L 493.17528 90.001395 
" style="fill: none; stroke: #181a20; stroke-width: 0.8; stroke-linejoin: miter; stroke-linecap: square"/>
   </g>
  </g>
  <g id="axes_4">
   <g id="legend_2">
    <g id="line2d_36">
     <path d="M 515.227322 17.730697 
L 524.227322 17.730697 
L 533.227322 17.730697 
" style="fill: none; stroke: #181a20; stroke-linecap: square"/>
    </g>
    <g id="text_26">
     <!-- $\alpha$=$\beta$=0.1 -->
     <g style="fill: #181a20" transform="translate(540.427322 20.880697) scale(0.09 -0.09)">
      <use xlink:href="#DejaVuSans-Oblique-3b1" transform="translate(0 0.390625)"/>
      <use xlink:href="#DejaVuSans-3d" transform="translate(65.917969 0.390625)"/>
      <use xlink:href="#DejaVuSans-Oblique-3b2" transform="translate(149.707031 0.390625)"/>
      <use xlink:href="#DejaVuSans-3d" transform="translate(213.525391 0.390625)"/>
      <use xlink:href="#DejaVuSans-30" transform="translate(297.314453 0.390625)"/>
      <use xlink:href="#DejaVuSans-2e" transform="translate(360.9375 0.390625)"/>
      <use xlink:href="#DejaVuSans-31" transform="translate(392.724609 0.390625)"/>
     </g>
    </g>
    <g id="line2d_37">
     <path d="M 515.227322 31.050697 
L 524.227322 31.050697 
L 533.227322 31.050697 
" style="fill: none; stroke-dasharray: 3.7,1.6; stroke-dashoffset: 0; stroke: #181a20"/>
    </g>
    <g id="text_27">
     <!-- $\alpha$=$\beta$=0.3 -->
     <g style="fill: #181a20" transform="translate(540.427322 34.200697) scale(0.09 -0.09)">
      <use xlink:href="#DejaVuSans-Oblique-3b1" transform="translate(0 0.390625)"/>
      <use xlink:href="#DejaVuSans-3d" transform="translate(65.917969 0.390625)"/>
      <use xlink:href="#DejaVuSans-Oblique-3b2" transform="translate(149.707031 0.390625)"/>
      <use xlink:href="#DejaVuSans-3d" transform="translate(213.525391 0.390625)"/>
      <use xlink:href="#DejaVuSans-30" transform="translate(297.314453 0.390625)"/>
      <use xlink:href="#DejaVuSans-2e" transform="translate(360.9375 0.390625)"/>
      <use xlink:href="#DejaVuSans-33" transform="translate(392.724609 0.390625)"/>
     </g>
    </g>
    <g id="line2d_38">
     <path d="M 515.227322 44.370697 
L 524.227322 44.370697 
L 533.227322 44.370697 
" style="fill: none; stroke-dasharray: 1,1.65; stroke-dashoffset: 0; stroke: #181a20"/>
    </g>
    <g id="text_28">
     <!-- $\alpha$=$\beta$=0.5 -->
     <g style="fill: #181a20" transform="translate(540.427322 47.520697) scale(0.09 -0.09)">
      <use xlink:href="#DejaVuSans-Oblique-3b1" transform="translate(0 0.390625)"/>
      <use xlink:href="#DejaVuSans-3d" transform="translate(65.917969 0.390625)"/>
      <use xlink:href="#DejaVuSans-Oblique-3b2" transform="translate(149.707031 0.390625)"/>
      <use xlink:href="#DejaVuSans-3d" transform="translate(213.525391 0.390625)"/>
      <use xlink:href="#DejaVuSans-30" transform="translate(297.314453 0.390625)"/>
      <use xlink:href="#DejaVuSans-2e" transform="translate(360.9375 0.390625)"/>
      <use xlink:href="#DejaVuSans-35" transform="translate(392.724609 0.390625)"/>
     </g>
    </g>
    <g id="line2d_39">
     <path d="M 515.227322 57.690698 
L 524.227322 57.690698 
L 533.227322 57.690698 
" style="fill: none; stroke-dasharray: 6.4,1.6,1,1.6; stroke-dashoffset: 0; stroke: #181a20"/>
    </g>
    <g id="text_29">
     <!-- $\alpha$=$\beta$=0.7 -->
     <g style="fill: #181a20" transform="translate(540.427322 60.840698) scale(0.09 -0.09)">
      <defs>
       <path id="DejaVuSans-37" d="M 525 4666 
L 3525 4666 
L 3525 4397 
L 1831 0 
L 1172 0 
L 2766 4134 
L 525 4134 
L 525 4666 
z
" transform="scale(0.015625)"/>
      </defs>
      <use xlink:href="#DejaVuSans-Oblique-3b1" transform="translate(0 0.390625)"/>
      <use xlink:href="#DejaVuSans-3d" transform="translate(65.917969 0.390625)"/>
      <use xlink:href="#DejaVuSans-Oblique-3b2" transform="translate(149.707031 0.390625)"/>
      <use xlink:href="#DejaVuSans-3d" transform="translate(213.525391 0.390625)"/>
      <use xlink:href="#DejaVuSans-30" transform="translate(297.314453 0.390625)"/>
      <use xlink:href="#DejaVuSans-2e" transform="translate(360.9375 0.390625)"/>
      <use xlink:href="#DejaVuSans-37" transform="translate(384.974609 0.390625)"/>
     </g>
    </g>
    <g id="line2d_40">
     <path d="M 515.227322 71.010697 
L 524.227322 71.010697 
L 533.227322 71.010697 
" style="fill: none; stroke-dasharray: 10,3; stroke-dashoffset: 5; stroke: #181a20"/>
    </g>
    <g id="text_30">
     <!-- $\alpha$=$\beta$=0.9 -->
     <g style="fill: #181a20" transform="translate(540.427322 74.160697) scale(0.09 -0.09)">
      <defs>
       <path id="DejaVuSans-39" d="M 703 97 
L 703 672 
Q 941 559 1184 500 
Q 1428 441 1663 441 
Q 2288 441 2617 861 
Q 2947 1281 2994 2138 
Q 2813 1869 2534 1725 
Q 2256 1581 1919 1581 
Q 1219 1581 811 2004 
Q 403 2428 403 3163 
Q 403 3881 828 4315 
Q 1253 4750 1959 4750 
Q 2769 4750 3195 4129 
Q 3622 3509 3622 2328 
Q 3622 1225 3098 567 
Q 2575 -91 1691 -91 
Q 1453 -91 1209 -44 
Q 966 3 703 97 
z
M 1959 2075 
Q 2384 2075 2632 2365 
Q 2881 2656 2881 3163 
Q 2881 3666 2632 3958 
Q 2384 4250 1959 4250 
Q 1534 4250 1286 3958 
Q 1038 3666 1038 3163 
Q 1038 2656 1286 2365 
Q 1534 2075 1959 2075 
z
" transform="scale(0.015625)"/>
      </defs>
      <use xlink:href="#DejaVuSans-Oblique-3b1" transform="translate(0 0.390625)"/>
      <use xlink:href="#DejaVuSans-3d" transform="translate(65.917969 0.390625)"/>
      <use xlink:href="#DejaVuSans-Oblique-3b2" transform="translate(149.707031 0.390625)"/>
      <use xlink:href="#DejaVuSans-3d" transform="translate(213.525391 0.390625)"/>
      <use xlink:href="#DejaVuSans-30" transform="translate(297.314453 0.390625)"/>
      <use xlink:href="#DejaVuSans-2e" transform="translate(360.9375 0.390625)"/>
      <use xlink:href="#DejaVuSans-39" transform="translate(392.724609 0.390625)"/>
     </g>
    </g>
   </g>
  </g>
  <g id="axes_5">
   <g id="patch_8">
    <path d="M 13.3625 202.681395 
L 193.29528 202.681395 
L 193.29528 112.68 
L 13.3625 112.68 
L 13.3625 202.681395 
z
" style="fill: none"/>
   </g>
   <g id="matplotlib.axis_5">
    <g id="xtick_13">
     <g id="line2d_41">
      <g>
       <use xlink:href="#m4c603d21fe" x="13.3625" y="202.681395" style="fill: #181a20; stroke: #181a20; stroke-width: 0.8"/>
      </g>
     </g>
     <g id="text_31">
      <!-- 0.0 -->
      <g style="fill: #181a20" transform="translate(5.410938 217.279832) scale(0.1 -0.1)">
       <use xlink:href="#DejaVuSans-30"/>
       <use xlink:href="#DejaVuSans-2e" transform="translate(63.623047 0)"/>
       <use xlink:href="#DejaVuSans-30" transform="translate(95.410156 0)"/>
      </g>
     </g>
    </g>
    <g id="xtick_14">
     <g id="line2d_42">
      <g>
       <use xlink:href="#m4c603d21fe" x="49.349056" y="202.681395" style="fill: #181a20; stroke: #181a20; stroke-width: 0.8"/>
      </g>
     </g>
     <g id="text_32">
      <!-- 0.2 -->
      <g style="fill: #181a20" transform="translate(41.397493 217.279832) scale(0.1 -0.1)">
       <use xlink:href="#DejaVuSans-30"/>
       <use xlink:href="#DejaVuSans-2e" transform="translate(63.623047 0)"/>
       <use xlink:href="#DejaVuSans-32" transform="translate(95.410156 0)"/>
      </g>
     </g>
    </g>
    <g id="xtick_15">
     <g id="line2d_43">
      <g>
       <use xlink:href="#m4c603d21fe" x="85.335612" y="202.681395" style="fill: #181a20; stroke: #181a20; stroke-width: 0.8"/>
      </g>
     </g>
     <g id="text_33">
      <!-- 0.4 -->
      <g style="fill: #181a20" transform="translate(77.384049 217.279832) scale(0.1 -0.1)">
       <use xlink:href="#DejaVuSans-30"/>
       <use xlink:href="#DejaVuSans-2e" transform="translate(63.623047 0)"/>
       <use xlink:href="#DejaVuSans-34" transform="translate(95.410156 0)"/>
      </g>
     </g>
    </g>
    <g id="xtick_16">
     <g id="line2d_44">
      <g>
       <use xlink:href="#m4c603d21fe" x="121.322168" y="202.681395" style="fill: #181a20; stroke: #181a20; stroke-width: 0.8"/>
      </g>
     </g>
     <g id="text_34">
      <!-- 0.6 -->
      <g style="fill: #181a20" transform="translate(113.370605 217.279832) scale(0.1 -0.1)">
       <use xlink:href="#DejaVuSans-30"/>
       <use xlink:href="#DejaVuSans-2e" transform="translate(63.623047 0)"/>
       <use xlink:href="#DejaVuSans-36" transform="translate(95.410156 0)"/>
      </g>
     </g>
    </g>
    <g id="xtick_17">
     <g id="line2d_45">
      <g>
       <use xlink:href="#m4c603d21fe" x="157.308724" y="202.681395" style="fill: #181a20; stroke: #181a20; stroke-width: 0.8"/>
      </g>
     </g>
     <g id="text_35">
      <!-- 0.8 -->
      <g style="fill: #181a20" transform="translate(149.357161 217.279832) scale(0.1 -0.1)">
       <use xlink:href="#DejaVuSans-30"/>
       <use xlink:href="#DejaVuSans-2e" transform="translate(63.623047 0)"/>
       <use xlink:href="#DejaVuSans-38" transform="translate(95.410156 0)"/>
      </g>
     </g>
    </g>
    <g id="xtick_18">
     <g id="line2d_46">
      <g>
       <use xlink:href="#m4c603d21fe" x="193.29528" y="202.681395" style="fill: #181a20; stroke: #181a20; stroke-width: 0.8"/>
      </g>
     </g>
     <g id="text_36">
      <!-- 1.0 -->
      <g style="fill: #181a20" transform="translate(185.343717 217.279832) scale(0.1 -0.1)">
       <use xlink:href="#DejaVuSans-31"/>
       <use xlink:href="#DejaVuSans-2e" transform="translate(63.623047 0)"/>
       <use xlink:href="#DejaVuSans-30" transform="translate(95.410156 0)"/>
      </g>
     </g>
    </g>
   </g>
   <g id="matplotlib.axis_6">
    <g id="ytick_9">
     <g id="line2d_47">
      <g>
       <use xlink:href="#ma72dfb4ec3" x="13.3625" y="202.681395" style="fill: #181a20; stroke: #181a20; stroke-width: 0.8"/>
      </g>
     </g>
     <g id="text_37">
      <!-- 0 -->
      <g style="fill: #181a20" transform="translate(0 206.480614) scale(0.1 -0.1)">
       <use xlink:href="#DejaVuSans-30"/>
      </g>
     </g>
    </g>
    <g id="ytick_10">
     <g id="line2d_48">
      <g>
       <use xlink:href="#ma72dfb4ec3" x="13.3625" y="176.966711" style="fill: #181a20; stroke: #181a20; stroke-width: 0.8"/>
      </g>
     </g>
     <g id="text_38">
      <!-- 1 -->
      <g style="fill: #181a20" transform="translate(0 180.765929) scale(0.1 -0.1)">
       <use xlink:href="#DejaVuSans-31"/>
      </g>
     </g>
    </g>
    <g id="ytick_11">
     <g id="line2d_49">
      <g>
       <use xlink:href="#ma72dfb4ec3" x="13.3625" y="151.252026" style="fill: #181a20; stroke: #181a20; stroke-width: 0.8"/>
      </g>
     </g>
     <g id="text_39">
      <!-- 2 -->
      <g style="fill: #181a20" transform="translate(0 155.051245) scale(0.1 -0.1)">
       <use xlink:href="#DejaVuSans-32"/>
      </g>
     </g>
    </g>
    <g id="ytick_12">
     <g id="line2d_50">
      <g>
       <use xlink:href="#ma72dfb4ec3" x="13.3625" y="125.537342" style="fill: #181a20; stroke: #181a20; stroke-width: 0.8"/>
      </g>
     </g>
     <g id="text_40">
      <!-- 3 -->
      <g style="fill: #181a20" transform="translate(0 129.336561) scale(0.1 -0.1)">
       <use xlink:href="#DejaVuSans-33"/>
      </g>
     </g>
    </g>
   </g>
   <g id="line2d_51">
    <path d="M 13.3625 202.681395 
L 193.29528 151.252026 
L 193.29528 151.252026 
" clip-path="url(#pa870bbdcdb)" style="fill: none; stroke: #181a20; stroke-linecap: square"/>
   </g>
   <g id="line2d_52">
    <path d="M 13.3625 202.681395 
L 24.349386 202.571459 
L 30.473225 202.281184 
L 35.696499 201.81996 
L 40.559547 201.17383 
L 45.242482 200.327751 
L 49.745304 199.28935 
L 54.248127 198.018624 
L 58.750949 196.508748 
L 63.253771 194.757737 
L 67.756594 192.768447 
L 72.439529 190.455144 
L 77.302577 187.80423 
L 82.525851 184.700222 
L 88.289463 181.009455 
L 95.133753 176.347609 
L 106.300753 168.41681 
L 115.126284 162.262512 
L 120.709784 158.626612 
L 125.392719 155.836557 
L 129.355203 153.722096 
L 132.957461 152.04086 
L 136.199493 150.758174 
L 139.261412 149.775749 
L 142.143218 149.078814 
L 144.844912 148.647024 
L 147.366492 148.455313 
L 149.888073 148.484563 
L 152.22954 148.724466 
L 154.571008 149.183599 
L 156.912475 149.876331 
L 159.253943 150.817384 
L 161.415298 151.919485 
L 163.576652 153.258141 
L 165.738007 154.845736 
L 167.899362 156.69491 
L 170.060717 158.818559 
L 172.402184 161.444179 
L 174.743652 164.424432 
L 177.085119 167.776736 
L 179.426587 171.518864 
L 181.768055 175.668941 
L 184.289635 180.615686 
L 186.811216 186.080534 
L 189.332796 192.087501 
L 191.854377 198.661079 
L 193.29528 202.681395 
L 193.29528 202.681395 
" clip-path="url(#pa870bbdcdb)" style="fill: none; stroke-dasharray: 3.7,1.6; stroke-dashoffset: 0; stroke: #181a20"/>
   </g>
   <g id="line2d_53">
    <path d="M 13.3625 202.681395 
L 36.236837 202.572104 
L 43.26124 202.300888 
L 48.664627 201.869979 
L 53.167449 201.293193 
L 57.310046 200.536653 
L 61.092417 199.618349 
L 64.694674 198.511234 
L 68.116819 197.225455 
L 71.358851 195.779176 
L 74.600883 194.097241 
L 77.842916 192.16993 
L 81.084948 189.991811 
L 84.507093 187.420099 
L 87.929238 184.574437 
L 91.531495 181.297953 
L 95.493979 177.390981 
L 99.996801 172.626379 
L 105.760414 166.173111 
L 117.827978 152.551121 
L 121.790461 148.469382 
L 125.032493 145.43226 
L 127.9143 143.028587 
L 130.43588 141.199153 
L 132.777348 139.76291 
L 134.938703 138.687146 
L 136.919944 137.931165 
L 138.901186 137.411962 
L 140.702315 137.158235 
L 142.503444 137.123341 
L 144.304573 137.316898 
L 146.105702 137.747406 
L 147.906831 138.422071 
L 149.70796 139.346626 
L 151.509089 140.525138 
L 153.310218 141.959809 
L 155.291459 143.833889 
L 157.272701 146.014952 
L 159.434056 148.736292 
L 161.775524 152.070477 
L 164.297104 156.079465 
L 166.998797 160.803685 
L 170.240829 166.950592 
L 174.743652 176.028367 
L 180.507264 187.587941 
L 183.208958 192.507984 
L 185.370312 195.990961 
L 187.171441 198.472903 
L 188.612345 200.116657 
L 189.873135 201.261783 
L 191.133925 202.094608 
L 192.214602 202.530185 
L 193.115167 202.677088 
L 193.29528 202.681395 
L 193.29528 202.681395 
" clip-path="url(#pa870bbdcdb)" style="fill: none; stroke-dasharray: 1,1.65; stroke-dashoffset: 0; stroke: #181a20"/>
   </g>
   <g id="line2d_54">
    <path d="M 13.3625 202.681395 
L 45.422595 202.573979 
L 52.266885 202.32035 
L 57.310046 201.921646 
L 61.452642 201.38059 
L 65.0549 200.69661 
L 68.296932 199.867697 
L 71.358851 198.863207 
L 74.240658 197.691154 
L 77.122464 196.272219 
L 79.824157 194.695815 
L 82.525851 192.862917 
L 85.227544 190.758979 
L 87.929238 188.373682 
L 90.630931 185.701857 
L 93.512737 182.537214 
L 96.574656 178.829827 
L 99.816688 174.54354 
L 103.418946 169.400736 
L 107.741656 162.82481 
L 121.07001 142.225083 
L 124.131929 138.083297 
L 126.653509 135.03262 
L 128.814864 132.736579 
L 130.796106 130.931406 
L 132.597235 129.568181 
L 134.218251 128.588013 
L 135.839267 127.85847 
L 137.28017 127.432439 
L 138.721073 127.225564 
L 140.161976 127.246045 
L 141.60288 127.500777 
L 143.043783 127.995201 
L 144.484686 128.733167 
L 145.925589 129.716797 
L 147.546605 131.11728 
L 149.167621 132.826327 
L 150.96875 135.079738 
L 152.769879 137.693193 
L 154.751121 140.960934 
L 156.912475 144.956573 
L 159.434056 150.113599 
L 162.495975 156.940892 
L 166.998797 167.622193 
L 172.222071 179.881233 
L 174.923765 185.681436 
L 177.265232 190.191465 
L 179.246474 193.536021 
L 181.047603 196.145956 
L 182.668619 198.115234 
L 184.109522 199.551937 
L 185.550425 200.692047 
L 186.991328 201.544177 
L 188.432232 202.128229 
L 189.873135 202.477248 
L 191.674264 202.658099 
L 193.29528 202.681395 
L 193.29528 202.681395 
" clip-path="url(#pa870bbdcdb)" style="fill: none; stroke-dasharray: 6.4,1.6,1,1.6; stroke-dashoffset: 0; stroke: #181a20"/>
   </g>
   <g id="line2d_55">
    <path d="M 13.3625 202.681395 
L 52.627111 202.573506 
L 59.291288 202.31713 
L 63.974223 201.924355 
L 67.756594 201.395346 
L 70.998626 200.731134 
L 74.060545 199.873603 
L 76.762238 198.890297 
L 79.283819 197.747288 
L 81.805399 196.356128 
L 84.146867 194.816601 
L 86.488334 193.016058 
L 88.829802 190.935067 
L 91.17127 188.557649 
L 93.512737 185.872348 
L 96.034318 182.629606 
L 98.555898 179.024531 
L 101.257592 174.773574 
L 104.139398 169.829566 
L 107.561543 163.488537 
L 111.884252 154.961047 
L 120.709784 137.413373 
L 123.59159 132.233084 
L 125.933058 128.435834 
L 128.094413 125.350489 
L 129.895542 123.143681 
L 131.516558 121.477855 
L 132.957461 120.275957 
L 134.398364 119.355805 
L 135.659154 118.794946 
L 136.919944 118.472432 
L 138.180735 118.396695 
L 139.441525 118.574608 
L 140.702315 119.011339 
L 141.963105 119.710214 
L 143.223896 120.672588 
L 144.484686 121.897739 
L 145.925589 123.615853 
L 147.546605 125.944319 
L 149.167621 128.674808 
L 150.96875 132.151116 
L 152.949992 136.464117 
L 155.291459 142.129226 
L 158.173266 149.750796 
L 162.856201 162.915242 
L 167.17891 174.82937 
L 169.880604 181.633177 
L 172.041958 186.516416 
L 174.0232 190.461071 
L 175.824329 193.556882 
L 177.445345 195.922744 
L 179.066361 197.885577 
L 180.507264 199.298963 
L 181.948167 200.416183 
L 183.389071 201.260825 
L 184.829974 201.864083 
L 186.45099 202.301285 
L 188.252119 202.558405 
L 190.773699 202.672651 
L 193.29528 202.681395 
L 193.29528 202.681395 
" clip-path="url(#pa870bbdcdb)" style="fill: none; stroke-dasharray: 10,3; stroke-dashoffset: 5; stroke: #181a20"/>
   </g>
   <g id="patch_9">
    <path d="M 13.3625 202.681395 
L 13.3625 112.68 
" style="fill: none; stroke: #181a20; stroke-width: 0.8; stroke-linejoin: miter; stroke-linecap: square"/>
   </g>
   <g id="patch_10">
    <path d="M 13.3625 202.681395 
L 193.29528 202.681395 
" style="fill: none; stroke: #181a20; stroke-width: 0.8; stroke-linejoin: miter; stroke-linecap: square"/>
   </g>
  </g>
  <g id="axes_6">
   <g id="legend_3">
    <g id="line2d_56">
     <path d="M 215.347322 130.410697 
L 224.347322 130.410697 
L 233.347322 130.410697 
" style="fill: none; stroke: #181a20; stroke-linecap: square"/>
    </g>
    <g id="text_41">
     <!-- $\alpha$=2, $\beta$=1 -->
     <g style="fill: #181a20" transform="translate(240.547322 133.560698) scale(0.09 -0.09)">
      <defs>
       <path id="DejaVuSans-2c" d="M 750 794 
L 1409 794 
L 1409 256 
L 897 -744 
L 494 -744 
L 750 256 
L 750 794 
z
" transform="scale(0.015625)"/>
       <path id="DejaVuSans-20" transform="scale(0.015625)"/>
      </defs>
      <use xlink:href="#DejaVuSans-Oblique-3b1" transform="translate(0 0.390625)"/>
      <use xlink:href="#DejaVuSans-3d" transform="translate(65.917969 0.390625)"/>
      <use xlink:href="#DejaVuSans-32" transform="translate(149.707031 0.390625)"/>
      <use xlink:href="#DejaVuSans-2c" transform="translate(213.330078 0.390625)"/>
      <use xlink:href="#DejaVuSans-20" transform="translate(245.117188 0.390625)"/>
      <use xlink:href="#DejaVuSans-Oblique-3b2" transform="translate(276.904297 0.390625)"/>
      <use xlink:href="#DejaVuSans-3d" transform="translate(340.722656 0.390625)"/>
      <use xlink:href="#DejaVuSans-31" transform="translate(424.511719 0.390625)"/>
     </g>
    </g>
    <g id="line2d_57">
     <path d="M 215.347322 143.730697 
L 224.347322 143.730697 
L 233.347322 143.730697 
" style="fill: none; stroke-dasharray: 3.7,1.6; stroke-dashoffset: 0; stroke: #181a20"/>
    </g>
    <g id="text_42">
     <!-- $\alpha$=4, $\beta$=2 -->
     <g style="fill: #181a20" transform="translate(240.547322 146.880697) scale(0.09 -0.09)">
      <use xlink:href="#DejaVuSans-Oblique-3b1" transform="translate(0 0.390625)"/>
      <use xlink:href="#DejaVuSans-3d" transform="translate(65.917969 0.390625)"/>
      <use xlink:href="#DejaVuSans-34" transform="translate(149.707031 0.390625)"/>
      <use xlink:href="#DejaVuSans-2c" transform="translate(213.330078 0.390625)"/>
      <use xlink:href="#DejaVuSans-20" transform="translate(245.117188 0.390625)"/>
      <use xlink:href="#DejaVuSans-Oblique-3b2" transform="translate(276.904297 0.390625)"/>
      <use xlink:href="#DejaVuSans-3d" transform="translate(340.722656 0.390625)"/>
      <use xlink:href="#DejaVuSans-32" transform="translate(424.511719 0.390625)"/>
     </g>
    </g>
    <g id="line2d_58">
     <path d="M 215.347322 157.050697 
L 224.347322 157.050697 
L 233.347322 157.050697 
" style="fill: none; stroke-dasharray: 1,1.65; stroke-dashoffset: 0; stroke: #181a20"/>
    </g>
    <g id="text_43">
     <!-- $\alpha$=6, $\beta$=3 -->
     <g style="fill: #181a20" transform="translate(240.547322 160.200697) scale(0.09 -0.09)">
      <use xlink:href="#DejaVuSans-Oblique-3b1" transform="translate(0 0.390625)"/>
      <use xlink:href="#DejaVuSans-3d" transform="translate(65.917969 0.390625)"/>
      <use xlink:href="#DejaVuSans-36" transform="translate(149.707031 0.390625)"/>
      <use xlink:href="#DejaVuSans-2c" transform="translate(213.330078 0.390625)"/>
      <use xlink:href="#DejaVuSans-20" transform="translate(245.117188 0.390625)"/>
      <use xlink:href="#DejaVuSans-Oblique-3b2" transform="translate(276.904297 0.390625)"/>
      <use xlink:href="#DejaVuSans-3d" transform="translate(340.722656 0.390625)"/>
      <use xlink:href="#DejaVuSans-33" transform="translate(424.511719 0.390625)"/>
     </g>
    </g>
    <g id="line2d_59">
     <path d="M 215.347322 170.370697 
L 224.347322 170.370697 
L 233.347322 170.370697 
" style="fill: none; stroke-dasharray: 6.4,1.6,1,1.6; stroke-dashoffset: 0; stroke: #181a20"/>
    </g>
    <g id="text_44">
     <!-- $\alpha$=8, $\beta$=4 -->
     <g style="fill: #181a20" transform="translate(240.547322 173.520697) scale(0.09 -0.09)">
      <use xlink:href="#DejaVuSans-Oblique-3b1" transform="translate(0 0.390625)"/>
      <use xlink:href="#DejaVuSans-3d" transform="translate(65.917969 0.390625)"/>
      <use xlink:href="#DejaVuSans-38" transform="translate(149.707031 0.390625)"/>
      <use xlink:href="#DejaVuSans-2c" transform="translate(213.330078 0.390625)"/>
      <use xlink:href="#DejaVuSans-20" transform="translate(245.117188 0.390625)"/>
      <use xlink:href="#DejaVuSans-Oblique-3b2" transform="translate(276.904297 0.390625)"/>
      <use xlink:href="#DejaVuSans-3d" transform="translate(340.722656 0.390625)"/>
      <use xlink:href="#DejaVuSans-34" transform="translate(424.511719 0.390625)"/>
     </g>
    </g>
    <g id="line2d_60">
     <path d="M 215.347322 183.690697 
L 224.347322 183.690697 
L 233.347322 183.690697 
" style="fill: none; stroke-dasharray: 10,3; stroke-dashoffset: 5; stroke: #181a20"/>
    </g>
    <g id="text_45">
     <!-- $\alpha$=10, $\beta$=5 -->
     <g style="fill: #181a20" transform="translate(240.547322 186.840697) scale(0.09 -0.09)">
      <use xlink:href="#DejaVuSans-Oblique-3b1" transform="translate(0 0.390625)"/>
      <use xlink:href="#DejaVuSans-3d" transform="translate(65.917969 0.390625)"/>
      <use xlink:href="#DejaVuSans-31" transform="translate(149.707031 0.390625)"/>
      <use xlink:href="#DejaVuSans-30" transform="translate(213.330078 0.390625)"/>
      <use xlink:href="#DejaVuSans-2c" transform="translate(276.953125 0.390625)"/>
      <use xlink:href="#DejaVuSans-20" transform="translate(308.740234 0.390625)"/>
      <use xlink:href="#DejaVuSans-Oblique-3b2" transform="translate(340.527344 0.390625)"/>
      <use xlink:href="#DejaVuSans-3d" transform="translate(404.345703 0.390625)"/>
      <use xlink:href="#DejaVuSans-35" transform="translate(488.134766 0.390625)"/>
     </g>
    </g>
   </g>
  </g>
  <g id="axes_7">
   <g id="patch_11">
    <path d="M 313.2425 202.681395 
L 493.17528 202.681395 
L 493.17528 112.68 
L 313.2425 112.68 
L 313.2425 202.681395 
z
" style="fill: none"/>
   </g>
   <g id="matplotlib.axis_7">
    <g id="xtick_19">
     <g id="line2d_61">
      <g>
       <use xlink:href="#m4c603d21fe" x="313.2425" y="202.681395" style="fill: #181a20; stroke: #181a20; stroke-width: 0.8"/>
      </g>
     </g>
     <g id="text_46">
      <!-- 0.0 -->
      <g style="fill: #181a20" transform="translate(305.290937 217.279832) scale(0.1 -0.1)">
       <use xlink:href="#DejaVuSans-30"/>
       <use xlink:href="#DejaVuSans-2e" transform="translate(63.623047 0)"/>
       <use xlink:href="#DejaVuSans-30" transform="translate(95.410156 0)"/>
      </g>
     </g>
    </g>
    <g id="xtick_20">
     <g id="line2d_62">
      <g>
       <use xlink:href="#m4c603d21fe" x="349.229056" y="202.681395" style="fill: #181a20; stroke: #181a20; stroke-width: 0.8"/>
      </g>
     </g>
     <g id="text_47">
      <!-- 0.2 -->
      <g style="fill: #181a20" transform="translate(341.277493 217.279832) scale(0.1 -0.1)">
       <use xlink:href="#DejaVuSans-30"/>
       <use xlink:href="#DejaVuSans-2e" transform="translate(63.623047 0)"/>
       <use xlink:href="#DejaVuSans-32" transform="translate(95.410156 0)"/>
      </g>
     </g>
    </g>
    <g id="xtick_21">
     <g id="line2d_63">
      <g>
       <use xlink:href="#m4c603d21fe" x="385.215612" y="202.681395" style="fill: #181a20; stroke: #181a20; stroke-width: 0.8"/>
      </g>
     </g>
     <g id="text_48">
      <!-- 0.4 -->
      <g style="fill: #181a20" transform="translate(377.264049 217.279832) scale(0.1 -0.1)">
       <use xlink:href="#DejaVuSans-30"/>
       <use xlink:href="#DejaVuSans-2e" transform="translate(63.623047 0)"/>
       <use xlink:href="#DejaVuSans-34" transform="translate(95.410156 0)"/>
      </g>
     </g>
    </g>
    <g id="xtick_22">
     <g id="line2d_64">
      <g>
       <use xlink:href="#m4c603d21fe" x="421.202168" y="202.681395" style="fill: #181a20; stroke: #181a20; stroke-width: 0.8"/>
      </g>
     </g>
     <g id="text_49">
      <!-- 0.6 -->
      <g style="fill: #181a20" transform="translate(413.250605 217.279832) scale(0.1 -0.1)">
       <use xlink:href="#DejaVuSans-30"/>
       <use xlink:href="#DejaVuSans-2e" transform="translate(63.623047 0)"/>
       <use xlink:href="#DejaVuSans-36" transform="translate(95.410156 0)"/>
      </g>
     </g>
    </g>
    <g id="xtick_23">
     <g id="line2d_65">
      <g>
       <use xlink:href="#m4c603d21fe" x="457.188724" y="202.681395" style="fill: #181a20; stroke: #181a20; stroke-width: 0.8"/>
      </g>
     </g>
     <g id="text_50">
      <!-- 0.8 -->
      <g style="fill: #181a20" transform="translate(449.237161 217.279832) scale(0.1 -0.1)">
       <use xlink:href="#DejaVuSans-30"/>
       <use xlink:href="#DejaVuSans-2e" transform="translate(63.623047 0)"/>
       <use xlink:href="#DejaVuSans-38" transform="translate(95.410156 0)"/>
      </g>
     </g>
    </g>
    <g id="xtick_24">
     <g id="line2d_66">
      <g>
       <use xlink:href="#m4c603d21fe" x="493.17528" y="202.681395" style="fill: #181a20; stroke: #181a20; stroke-width: 0.8"/>
      </g>
     </g>
     <g id="text_51">
      <!-- 1.0 -->
      <g style="fill: #181a20" transform="translate(485.223717 217.279832) scale(0.1 -0.1)">
       <use xlink:href="#DejaVuSans-31"/>
       <use xlink:href="#DejaVuSans-2e" transform="translate(63.623047 0)"/>
       <use xlink:href="#DejaVuSans-30" transform="translate(95.410156 0)"/>
      </g>
     </g>
    </g>
   </g>
   <g id="matplotlib.axis_8">
    <g id="ytick_13">
     <g id="line2d_67">
      <g>
       <use xlink:href="#ma72dfb4ec3" x="313.2425" y="198.590422" style="fill: #181a20; stroke: #181a20; stroke-width: 0.8"/>
      </g>
     </g>
     <g id="text_52">
      <!-- 0 -->
      <g style="fill: #181a20" transform="translate(299.88 202.389641) scale(0.1 -0.1)">
       <use xlink:href="#DejaVuSans-30"/>
      </g>
     </g>
    </g>
    <g id="ytick_14">
     <g id="line2d_68">
      <g>
       <use xlink:href="#ma72dfb4ec3" x="313.2425" y="173.629222" style="fill: #181a20; stroke: #181a20; stroke-width: 0.8"/>
      </g>
     </g>
     <g id="text_53">
      <!-- 1 -->
      <g style="fill: #181a20" transform="translate(299.88 177.42844) scale(0.1 -0.1)">
       <use xlink:href="#DejaVuSans-31"/>
      </g>
     </g>
    </g>
    <g id="ytick_15">
     <g id="line2d_69">
      <g>
       <use xlink:href="#ma72dfb4ec3" x="313.2425" y="148.668021" style="fill: #181a20; stroke: #181a20; stroke-width: 0.8"/>
      </g>
     </g>
     <g id="text_54">
      <!-- 2 -->
      <g style="fill: #181a20" transform="translate(299.88 152.46724) scale(0.1 -0.1)">
       <use xlink:href="#DejaVuSans-32"/>
      </g>
     </g>
    </g>
    <g id="ytick_16">
     <g id="line2d_70">
      <g>
       <use xlink:href="#ma72dfb4ec3" x="313.2425" y="123.70682" style="fill: #181a20; stroke: #181a20; stroke-width: 0.8"/>
      </g>
     </g>
     <g id="text_55">
      <!-- 3 -->
      <g style="fill: #181a20" transform="translate(299.88 127.506039) scale(0.1 -0.1)">
       <use xlink:href="#DejaVuSans-33"/>
      </g>
     </g>
    </g>
   </g>
   <g id="line2d_71">
    <path d="M 313.2425 148.668021 
L 493.17528 198.590422 
L 493.17528 198.590422 
" clip-path="url(#p9bb9cb069a)" style="fill: none; stroke: #181a20; stroke-linecap: square"/>
   </g>
   <g id="line2d_72">
    <path d="M 313.2425 198.590422 
L 315.944193 191.427173 
L 318.645887 184.909162 
L 321.167467 179.381796 
L 323.689048 174.367286 
L 326.210628 169.842583 
L 328.732209 165.785101 
L 331.073676 162.416447 
L 333.415144 159.414214 
L 335.756612 156.761389 
L 338.098079 154.441302 
L 340.439547 152.437626 
L 342.781014 150.734379 
L 345.122482 149.315921 
L 347.46395 148.166958 
L 349.805417 147.272537 
L 352.146885 146.618049 
L 354.488352 146.18923 
L 357.009933 145.963839 
L 359.531513 145.967089 
L 362.233207 146.205579 
L 364.9349 146.667947 
L 367.816706 147.386426 
L 370.878626 148.380122 
L 374.120658 149.662746 
L 377.722916 151.330758 
L 381.685399 153.416369 
L 386.188222 156.045487 
L 391.591608 159.473914 
L 398.796124 164.335658 
L 417.167639 176.856071 
L 423.47159 180.810993 
L 429.05509 184.049416 
L 434.098251 186.722422 
L 438.961299 189.049543 
L 443.644234 191.043495 
L 448.147057 192.724513 
L 452.649879 194.171443 
L 457.152701 195.386586 
L 461.655524 196.376946 
L 466.338459 197.181097 
L 471.201507 197.792221 
L 476.424781 198.225155 
L 482.368506 198.488762 
L 489.933248 198.587555 
L 493.17528 198.590422 
L 493.17528 198.590422 
" clip-path="url(#p9bb9cb069a)" style="fill: none; stroke-dasharray: 3.7,1.6; stroke-dashoffset: 0; stroke: #181a20"/>
   </g>
   <g id="line2d_73">
    <path d="M 313.2425 198.590422 
L 314.143064 198.487978 
L 315.223742 198.109377 
L 316.304419 197.475944 
L 317.565209 196.447226 
L 319.006113 194.934065 
L 320.627129 192.862309 
L 322.428258 190.180376 
L 324.589612 186.549031 
L 327.471419 181.220029 
L 332.334467 171.644977 
L 337.377628 161.870101 
L 340.61966 156.057956 
L 343.321353 151.637145 
L 345.842934 147.921694 
L 348.184401 144.862605 
L 350.345756 142.392959 
L 352.326998 140.437764 
L 354.30824 138.78261 
L 356.289481 137.428645 
L 358.09061 136.457562 
L 359.891739 135.73041 
L 361.692868 135.242088 
L 363.493997 134.986013 
L 365.295126 134.954292 
L 367.096255 135.137897 
L 369.077497 135.576599 
L 371.058739 136.249264 
L 373.220093 137.231751 
L 375.561561 138.565108 
L 378.083141 140.28276 
L 380.784835 142.407824 
L 383.846754 145.117745 
L 387.268899 148.450159 
L 391.591608 152.987742 
L 398.435898 160.548072 
L 406.540978 169.416069 
L 411.404026 174.397485 
L 415.546623 178.327627 
L 419.328994 181.617126 
L 422.931252 184.459388 
L 426.353397 186.884513 
L 429.775542 189.037457 
L 433.197686 190.920589 
L 436.619831 192.54195 
L 440.041976 193.914452 
L 443.464121 195.055024 
L 447.066379 196.027156 
L 450.84875 196.823806 
L 454.991346 197.470353 
L 459.674282 197.969036 
L 465.077668 198.313158 
L 471.921958 198.515437 
L 483.088958 198.588354 
L 493.17528 198.590422 
L 493.17528 198.590422 
" clip-path="url(#p9bb9cb069a)" style="fill: none; stroke-dasharray: 1,1.65; stroke-dashoffset: 0; stroke: #181a20"/>
   </g>
   <g id="line2d_74">
    <path d="M 313.2425 198.590422 
L 315.944193 198.490094 
L 317.565209 198.205077 
L 319.006113 197.728199 
L 320.447016 197.001529 
L 321.887919 196.001185 
L 323.328822 194.714898 
L 324.769725 193.140307 
L 326.390741 191.03202 
L 328.19187 188.293982 
L 330.173112 184.846581 
L 332.51458 180.271926 
L 335.216273 174.476872 
L 339.358869 164.978479 
L 345.302595 151.400786 
L 348.184401 145.359882 
L 350.705982 140.566122 
L 352.867336 136.900423 
L 354.848578 133.943329 
L 356.649707 131.614286 
L 358.450836 129.643185 
L 360.071852 128.183456 
L 361.692868 127.025306 
L 363.133771 126.249472 
L 364.574674 125.710721 
L 366.015578 125.405724 
L 367.456481 125.32957 
L 368.897384 125.475909 
L 370.338287 125.837083 
L 371.959303 126.489176 
L 373.580319 127.38788 
L 375.381448 128.656797 
L 377.36269 130.354773 
L 379.524044 132.531195 
L 381.865512 135.221142 
L 384.567205 138.681534 
L 387.809238 143.220157 
L 392.131947 149.686141 
L 403.118833 166.284943 
L 406.901204 171.517001 
L 410.323349 175.878409 
L 413.385268 179.437503 
L 416.267075 182.470322 
L 419.148881 185.187199 
L 422.030687 187.588337 
L 424.732381 189.559302 
L 427.434074 191.27057 
L 430.31588 192.826706 
L 433.197686 194.126498 
L 436.259606 195.254191 
L 439.501638 196.19792 
L 442.923783 196.955823 
L 446.706153 197.560091 
L 451.028863 198.018049 
L 456.252137 198.336955 
L 463.27654 198.523607 
L 475.704329 198.588449 
L 493.17528 198.590422 
L 493.17528 198.590422 
" clip-path="url(#p9bb9cb069a)" style="fill: none; stroke-dasharray: 6.4,1.6,1,1.6; stroke-dashoffset: 0; stroke: #181a20"/>
   </g>
   <g id="line2d_75">
    <path d="M 313.2425 198.590422 
L 318.105548 198.486239 
L 320.08679 198.221451 
L 321.707806 197.797059 
L 323.148709 197.211478 
L 324.589612 196.391585 
L 326.030515 195.307101 
L 327.471419 193.93513 
L 328.912322 192.260786 
L 330.533338 190.007743 
L 332.154354 187.366541 
L 333.955483 183.995226 
L 335.936724 179.799047 
L 338.278192 174.274348 
L 341.159998 166.839451 
L 346.383272 152.560741 
L 350.345756 142.060841 
L 353.047449 135.533369 
L 355.208804 130.852665 
L 357.190046 127.07 
L 358.991175 124.101872 
L 360.612191 121.841634 
L 362.053094 120.173864 
L 363.493997 118.835502 
L 364.754787 117.937872 
L 366.015578 117.295954 
L 367.276368 116.908151 
L 368.537158 116.770972 
L 369.797948 116.879156 
L 371.058739 117.225807 
L 372.319529 117.802533 
L 373.760432 118.730834 
L 375.201335 119.930471 
L 376.822351 121.581741 
L 378.62348 123.758183 
L 380.604722 126.520382 
L 382.946189 130.206365 
L 385.647883 134.907733 
L 389.070028 141.333615 
L 401.497817 165.125289 
L 404.739849 170.630467 
L 407.621656 175.098647 
L 410.323349 178.887813 
L 412.84493 182.060818 
L 415.36651 184.880526 
L 417.888091 187.35371 
L 420.229558 189.352184 
L 422.571026 191.079772 
L 425.092606 192.659247 
L 427.614187 193.973468 
L 430.31588 195.119615 
L 433.017574 196.029756 
L 436.079493 196.820236 
L 439.501638 197.457588 
L 443.284008 197.930011 
L 447.966944 198.277081 
L 454.090782 198.489424 
L 464.177104 198.581349 
L 493.17528 198.590422 
L 493.17528 198.590422 
" clip-path="url(#p9bb9cb069a)" style="fill: none; stroke-dasharray: 10,3; stroke-dashoffset: 5; stroke: #181a20"/>
   </g>
   <g id="patch_12">
    <path d="M 313.2425 202.681395 
L 313.2425 112.68 
" style="fill: none; stroke: #181a20; stroke-width: 0.8; stroke-linejoin: miter; stroke-linecap: square"/>
   </g>
   <g id="patch_13">
    <path d="M 313.2425 202.681395 
L 493.17528 202.681395 
" style="fill: none; stroke: #181a20; stroke-width: 0.8; stroke-linejoin: miter; stroke-linecap: square"/>
   </g>
  </g>
  <g id="axes_8">
   <g id="legend_4">
    <g id="line2d_76">
     <path d="M 515.227322 130.410697 
L 524.227322 130.410697 
L 533.227322 130.410697 
" style="fill: none; stroke: #181a20; stroke-linecap: square"/>
    </g>
    <g id="text_56">
     <!-- $\alpha$=1, $\beta$=2 -->
     <g style="fill: #181a20" transform="translate(540.427322 133.560698) scale(0.09 -0.09)">
      <use xlink:href="#DejaVuSans-Oblique-3b1" transform="translate(0 0.390625)"/>
      <use xlink:href="#DejaVuSans-3d" transform="translate(65.917969 0.390625)"/>
      <use xlink:href="#DejaVuSans-31" transform="translate(149.707031 0.390625)"/>
      <use xlink:href="#DejaVuSans-2c" transform="translate(213.330078 0.390625)"/>
      <use xlink:href="#DejaVuSans-20" transform="translate(245.117188 0.390625)"/>
      <use xlink:href="#DejaVuSans-Oblique-3b2" transform="translate(276.904297 0.390625)"/>
      <use xlink:href="#DejaVuSans-3d" transform="translate(340.722656 0.390625)"/>
      <use xlink:href="#DejaVuSans-32" transform="translate(424.511719 0.390625)"/>
     </g>
    </g>
    <g id="line2d_77">
     <path d="M 515.227322 143.730697 
L 524.227322 143.730697 
L 533.227322 143.730697 
" style="fill: none; stroke-dasharray: 3.7,1.6; stroke-dashoffset: 0; stroke: #181a20"/>
    </g>
    <g id="text_57">
     <!-- $\alpha$=2, $\beta$=4 -->
     <g style="fill: #181a20" transform="translate(540.427322 146.880697) scale(0.09 -0.09)">
      <use xlink:href="#DejaVuSans-Oblique-3b1" transform="translate(0 0.390625)"/>
      <use xlink:href="#DejaVuSans-3d" transform="translate(65.917969 0.390625)"/>
      <use xlink:href="#DejaVuSans-32" transform="translate(149.707031 0.390625)"/>
      <use xlink:href="#DejaVuSans-2c" transform="translate(213.330078 0.390625)"/>
      <use xlink:href="#DejaVuSans-20" transform="translate(245.117188 0.390625)"/>
      <use xlink:href="#DejaVuSans-Oblique-3b2" transform="translate(276.904297 0.390625)"/>
      <use xlink:href="#DejaVuSans-3d" transform="translate(340.722656 0.390625)"/>
      <use xlink:href="#DejaVuSans-34" transform="translate(424.511719 0.390625)"/>
     </g>
    </g>
    <g id="line2d_78">
     <path d="M 515.227322 157.050697 
L 524.227322 157.050697 
L 533.227322 157.050697 
" style="fill: none; stroke-dasharray: 1,1.65; stroke-dashoffset: 0; stroke: #181a20"/>
    </g>
    <g id="text_58">
     <!-- $\alpha$=3, $\beta$=6 -->
     <g style="fill: #181a20" transform="translate(540.427322 160.200697) scale(0.09 -0.09)">
      <use xlink:href="#DejaVuSans-Oblique-3b1" transform="translate(0 0.390625)"/>
      <use xlink:href="#DejaVuSans-3d" transform="translate(65.917969 0.390625)"/>
      <use xlink:href="#DejaVuSans-33" transform="translate(149.707031 0.390625)"/>
      <use xlink:href="#DejaVuSans-2c" transform="translate(213.330078 0.390625)"/>
      <use xlink:href="#DejaVuSans-20" transform="translate(245.117188 0.390625)"/>
      <use xlink:href="#DejaVuSans-Oblique-3b2" transform="translate(276.904297 0.390625)"/>
      <use xlink:href="#DejaVuSans-3d" transform="translate(340.722656 0.390625)"/>
      <use xlink:href="#DejaVuSans-36" transform="translate(424.511719 0.390625)"/>
     </g>
    </g>
    <g id="line2d_79">
     <path d="M 515.227322 170.370697 
L 524.227322 170.370697 
L 533.227322 170.370697 
" style="fill: none; stroke-dasharray: 6.4,1.6,1,1.6; stroke-dashoffset: 0; stroke: #181a20"/>
    </g>
    <g id="text_59">
     <!-- $\alpha$=4, $\beta$=8 -->
     <g style="fill: #181a20" transform="translate(540.427322 173.520697) scale(0.09 -0.09)">
      <use xlink:href="#DejaVuSans-Oblique-3b1" transform="translate(0 0.390625)"/>
      <use xlink:href="#DejaVuSans-3d" transform="translate(65.917969 0.390625)"/>
      <use xlink:href="#DejaVuSans-34" transform="translate(149.707031 0.390625)"/>
      <use xlink:href="#DejaVuSans-2c" transform="translate(213.330078 0.390625)"/>
      <use xlink:href="#DejaVuSans-20" transform="translate(245.117188 0.390625)"/>
      <use xlink:href="#DejaVuSans-Oblique-3b2" transform="translate(276.904297 0.390625)"/>
      <use xlink:href="#DejaVuSans-3d" transform="translate(340.722656 0.390625)"/>
      <use xlink:href="#DejaVuSans-38" transform="translate(424.511719 0.390625)"/>
     </g>
    </g>
    <g id="line2d_80">
     <path d="M 515.227322 183.690697 
L 524.227322 183.690697 
L 533.227322 183.690697 
" style="fill: none; stroke-dasharray: 10,3; stroke-dashoffset: 5; stroke: #181a20"/>
    </g>
    <g id="text_60">
     <!-- $\alpha$=5, $\beta$=10 -->
     <g style="fill: #181a20" transform="translate(540.427322 186.840697) scale(0.09 -0.09)">
      <use xlink:href="#DejaVuSans-Oblique-3b1" transform="translate(0 0.390625)"/>
      <use xlink:href="#DejaVuSans-3d" transform="translate(65.917969 0.390625)"/>
      <use xlink:href="#DejaVuSans-35" transform="translate(149.707031 0.390625)"/>
      <use xlink:href="#DejaVuSans-2c" transform="translate(213.330078 0.390625)"/>
      <use xlink:href="#DejaVuSans-20" transform="translate(245.117188 0.390625)"/>
      <use xlink:href="#DejaVuSans-Oblique-3b2" transform="translate(276.904297 0.390625)"/>
      <use xlink:href="#DejaVuSans-3d" transform="translate(340.722656 0.390625)"/>
      <use xlink:href="#DejaVuSans-31" transform="translate(424.511719 0.390625)"/>
      <use xlink:href="#DejaVuSans-30" transform="translate(488.134766 0.390625)"/>
     </g>
    </g>
   </g>
  </g>
 </g>
 <defs>
  <clipPath id="pe4e253b0e8">
   <rect x="13.3625" y="-0" width="179.93278" height="90.001395"/>
  </clipPath>
  <clipPath id="p2d251cb892">
   <rect x="313.2425" y="-0" width="179.93278" height="90.001395"/>
  </clipPath>
  <clipPath id="pa870bbdcdb">
   <rect x="13.3625" y="112.68" width="179.93278" height="90.001395"/>
  </clipPath>
  <clipPath id="p9bb9cb069a">
   <rect x="313.2425" y="112.68" width="179.93278" height="90.001395"/>
  </clipPath>
 </defs>
</svg>
